<?xml version="1.0" standalone="no"?>
<!DOCTYPE svg PUBLIC "-//W3C//DTD SVG 20010904//EN"
 "http://www.w3.org/TR/2001/REC-SVG-20010904/DTD/svg10.dtd">
<svg version="1.0" xmlns="http://www.w3.org/2000/svg"
 width="5120.000000pt" height="2880.000000pt" viewBox="0 0 5120.000000 2880.000000"
 preserveAspectRatio="xMidYMid meet">
<metadata>
Created by potrace 1.15, written by Peter Selinger 2001-2017
</metadata>
<g transform="translate(0.000000,2880.000000) scale(0.100000,-0.100000)"
fill="#000000" stroke="none">
<path d="M49895 19420 c-55 -22 -95 -39 -90 -40 15 -1 -195 -80 -214 -80 -22
0 -104 -32 -119 -47 -7 -7 -28 -15 -46 -18 -25 -5 -43 -20 -72 -58 -21 -28
-39 -54 -39 -58 0 -4 -11 -18 -25 -31 -14 -12 -74 -85 -134 -160 -60 -76 -112
-135 -117 -133 -9 6 -23 -14 -24 -32 0 -20 -279 -365 -302 -374 -13 -5 -28 -7
-35 -4 -7 2 -24 -10 -38 -28 -18 -23 -20 -29 -8 -25 14 6 16 2 12 -28 -6 -49
-32 -88 -50 -73 -11 9 -18 8 -29 -1 -8 -7 -13 -16 -10 -20 3 -4 -7 -15 -20
-24 -14 -10 -23 -22 -19 -28 5 -7 2 -8 -6 -3 -10 6 -7 14 14 32 15 12 23 23
18 23 -12 0 -82 -71 -82 -84 0 -5 10 -1 23 10 22 19 22 19 4 -2 -9 -11 -14
-24 -10 -28 4 -4 0 -4 -9 -1 -9 4 -19 1 -24 -6 -5 -8 -3 -10 7 -4 8 5 7 0 -4
-12 -9 -11 -14 -24 -10 -28 5 -5 0 -3 -9 4 -14 11 -21 11 -33 1 -15 -12 -11
-35 5 -25 19 12 2 -27 -18 -41 -12 -8 -20 -19 -17 -24 3 -4 -7 -15 -20 -24
-25 -16 -25 -16 -13 3 6 11 16 17 20 15 5 -3 7 -2 6 3 -5 13 28 53 37 45 5 -4
5 -1 0 7 -6 11 -17 4 -46 -30 -21 -24 -39 -47 -39 -51 0 -5 -6 -8 -12 -8 -7 0
-42 -39 -78 -86 -36 -47 -73 -95 -82 -106 -10 -11 -15 -26 -11 -32 4 -6 -2 -3
-13 6 -19 17 -21 16 -38 -3 l-17 -20 -20 25 c-11 14 -28 26 -37 26 -15 1 -15
2 1 11 15 9 16 14 6 25 -23 28 -109 96 -109 86 0 -5 20 -25 45 -44 24 -19 41
-39 37 -43 -4 -5 -1 -5 7 0 10 6 12 4 6 -5 -6 -10 -13 -6 -27 14 -11 14 -25
23 -30 20 -6 -4 -8 -2 -5 3 6 10 -15 25 -38 27 -5 1 -9 9 -7 18 1 9 -3 20 -9
24 -8 5 -9 3 -4 -6 6 -10 4 -11 -6 -4 -8 5 -18 9 -24 9 -5 0 -10 11 -10 24 0
13 -7 26 -15 29 -13 5 -13 3 0 -14 14 -18 14 -18 -2 -5 -10 7 -18 10 -18 5 0
-4 -5 -3 -12 4 -7 7 -21 12 -31 12 -25 0 -114 74 -114 95 0 8 9 15 21 15 15 0
17 3 8 9 -8 4 -12 11 -10 13 1 3 -23 27 -55 53 -55 44 -59 46 -77 30 -13 -12
-20 -13 -26 -4 -5 8 -3 10 7 5 8 -4 3 2 -11 14 -14 12 -19 18 -11 14 10 -5 12
-3 6 5 -5 8 -11 9 -17 3 -11 -11 -33 -2 -83 35 -17 11 -52 24 -78 28 -26 4
-50 11 -53 16 -3 5 -17 7 -32 3 -26 -5 -26 -5 -8 10 24 19 15 23 -71 29 -55 4
-63 3 -68 -14 -8 -23 -14 -23 -85 -4 -30 8 -68 12 -84 9 -19 -4 -26 -3 -22 5
4 6 24 12 44 12 l37 2 -35 7 -35 7 40 3 40 2 -40 9 c-49 12 -97 8 -102 -8 -2
-6 4 -13 14 -16 15 -4 14 -5 -4 -6 -12 0 -25 -5 -28 -11 -3 -5 -15 -10 -26
-10 -11 0 -18 4 -15 9 3 5 -44 12 -104 16 -68 4 -108 11 -104 17 6 9 132 4
197 -8 15 -3 27 -1 27 4 0 6 -47 13 -105 17 -67 5 -108 12 -113 20 -9 16 -220
39 -237 25 -7 -6 -15 -6 -23 2 -14 14 -242 36 -279 26 -15 -4 -44 -3 -64 2
-20 6 -76 12 -125 14 -49 2 -100 7 -114 11 -14 4 -22 4 -18 0 8 -9 -53 -55
-72 -55 -5 0 -29 -13 -52 -30 -28 -21 -35 -30 -23 -30 11 0 -22 -29 -73 -64
-59 -41 -100 -62 -111 -59 -10 3 -22 0 -25 -6 -4 -6 -14 -11 -23 -11 -17 0
-143 -87 -143 -98 0 -4 -14 -16 -31 -26 -20 -12 -27 -21 -20 -25 7 -5 -2 -17
-26 -34 -20 -15 -40 -22 -43 -17 -9 14 -70 -29 -63 -46 3 -9 -1 -14 -12 -14
-9 0 -59 -29 -110 -65 -51 -35 -94 -62 -96 -60 -2 2 -25 -7 -51 -19 -38 -18
-48 -20 -52 -9 -3 8 -1 11 4 8 6 -3 10 -1 10 4 0 6 3 10 8 8 6 -2 12 6 12 18
0 3 -11 -2 -25 -11 -14 -9 -22 -20 -19 -25 3 -5 0 -9 -6 -9 -6 0 -10 -6 -8
-12 2 -12 -28 -48 -64 -76 -15 -12 -19 -9 -34 20 -9 18 -21 35 -25 38 -5 3 -2
18 5 32 14 27 12 38 -8 38 -6 0 -5 -4 3 -9 8 -5 9 -11 3 -15 -6 -3 -29 27 -52
69 -23 41 -44 75 -48 75 -4 0 -20 26 -35 58 -63 126 -91 178 -107 197 -19 22
-69 107 -68 115 3 13 -44 90 -55 90 -6 0 -34 41 -61 91 -61 111 -78 133 -94
117 -8 -8 -12 -8 -12 -1 0 6 -14 13 -31 17 -17 3 -43 14 -57 24 -15 11 -49 20
-77 21 -27 2 -56 6 -65 11 -8 4 -40 13 -70 20 -30 7 -57 16 -60 19 -7 9 -435
117 -525 132 -38 7 -80 18 -92 25 -21 13 -86 30 -208 54 -33 7 -82 22 -110 35
-27 12 -62 25 -77 28 -16 4 -27 13 -25 20 1 6 -5 12 -13 12 -8 0 -21 4 -27 8
-7 5 -17 5 -23 2 -5 -3 -10 -1 -10 6 0 6 -8 9 -20 6 -11 -3 -20 -1 -20 5 0 6
-9 8 -20 5 -11 -3 -20 -1 -20 5 0 6 -9 8 -20 5 -11 -3 -20 -1 -20 5 0 6 -9 8
-20 5 -11 -3 -20 -1 -20 5 0 5 -9 6 -20 3 -12 -4 -20 -2 -20 5 0 7 -6 10 -14
7 -7 -3 -18 -1 -24 5 -8 8 -15 8 -25 -1 -27 -22 -146 5 -178 41 -11 13 -18 17
-14 11 12 -25 -5 -12 -20 15 -14 24 -16 25 -11 4 4 -19 2 -21 -10 -11 -10 8
-14 8 -14 1 0 -7 -7 -9 -17 -5 -11 4 -14 3 -9 -5 4 -7 3 -12 -3 -12 -5 0 -12
-8 -16 -18 -3 -11 -18 -25 -33 -31 -41 -19 -111 -42 -133 -44 -10 -1 -19 -6
-19 -12 0 -5 -5 -3 -10 5 -8 12 -10 12 -10 -5 0 -17 -2 -17 -10 -5 -8 13 -10
13 -10 -2 0 -25 -117 -83 -135 -68 -9 8 -17 7 -28 -4 -8 -8 -17 -12 -21 -9 -3
4 -6 1 -6 -6 0 -7 -4 -9 -10 -6 -5 3 -10 1 -10 -5 0 -6 -4 -8 -10 -5 -5 3 -10
1 -10 -5 0 -6 -4 -8 -10 -5 -5 3 -10 1 -10 -5 0 -6 -4 -8 -10 -5 -5 3 -10 1
-10 -5 0 -6 -4 -8 -10 -5 -5 3 -10 1 -10 -5 0 -6 -4 -8 -10 -5 -5 3 -10 1 -10
-5 0 -6 -4 -8 -10 -5 -5 3 -10 2 -10 -4 0 -6 -7 -7 -17 -4 -12 5 -14 3 -8 -7
5 -8 4 -11 -3 -6 -12 7 -115 -40 -120 -55 -2 -5 -8 -7 -13 -3 -5 3 -9 0 -9 -6
0 -6 -4 -8 -10 -5 -5 3 -10 1 -10 -5 0 -6 -4 -8 -10 -5 -5 3 -10 1 -10 -5 0
-6 -4 -8 -10 -5 -5 3 -10 1 -10 -5 0 -6 -4 -8 -10 -5 -5 3 -10 1 -10 -5 0 -6
-4 -8 -10 -5 -5 3 -10 1 -10 -5 0 -6 -5 -8 -11 -4 -7 4 -9 0 -5 -13 5 -16 -3
-24 -41 -42 -27 -12 -51 -22 -56 -21 -4 0 -43 -18 -88 -40 -64 -33 -84 -39
-95 -29 -11 9 -14 9 -14 0 0 -7 -4 -9 -10 -6 -5 3 -10 2 -10 -4 0 -6 -7 -7
-17 -4 -11 4 -14 3 -9 -5 5 -8 2 -10 -8 -6 -8 3 -46 -8 -83 -24 -37 -16 -87
-38 -110 -47 -24 -10 -43 -21 -43 -24 0 -4 -16 -15 -35 -25 -19 -10 -32 -22
-30 -27 3 -4 0 -11 -6 -15 -8 -5 -9 -3 -4 6 6 10 4 11 -11 5 -23 -9 -89 -25
-124 -29 -30 -3 -111 -45 -90 -46 13 0 13 -2 0 -9 -8 -6 -18 -7 -22 -5 -13 8
-48 -6 -45 -19 1 -6 -3 -11 -9 -12 -5 0 -57 -21 -115 -46 -144 -64 -193 -84
-196 -81 -2 1 -16 -4 -33 -13 -54 -28 -46 -14 10 16 30 16 50 28 43 27 -27 -7
-242 -114 -242 -121 -1 -4 30 9 69 28 75 38 80 39 80 27 0 -5 -34 -23 -76 -42
-52 -23 -71 -36 -62 -41 11 -7 11 -9 -1 -9 -11 0 -11 -3 0 -17 10 -11 10 -14
2 -9 -8 4 -13 2 -13 -6 0 -10 -3 -9 -10 2 -8 12 -13 12 -42 -2 -31 -14 -52
-13 -293 12 -143 15 -240 29 -215 30 44 3 44 3 -15 10 -33 3 -63 2 -66 -2 -9
-13 -370 26 -397 43 -16 10 -25 11 -30 3 -5 -8 -28 -9 -70 -5 -54 5 -67 11
-100 43 -30 29 -47 37 -82 40 -38 2 -45 0 -44 -14 2 -20 -4 -21 -91 -19 l-60
2 -68 -69 -69 -70 99 -11 c54 -7 406 -50 782 -95 l684 -83 191 92 c193 94 541
262 1662 801 337 162 619 294 627 294 8 0 158 -32 333 -70 176 -39 423 -93
549 -120 127 -28 418 -92 648 -143 l419 -92 37 -70 c21 -38 145 -277 276 -530
131 -253 243 -467 249 -476 9 -13 93 44 556 378 300 216 568 408 595 427 l50
34 785 -72 785 -71 404 -309 c221 -169 406 -304 411 -300 4 5 207 261 451 569
243 308 529 668 634 800 l191 240 304 114 c168 63 307 116 309 117 7 6 -21 34
-33 33 -6 0 -56 -18 -111 -39z"/>
<path d="M38120 17885 c110 -112 139 -134 174 -137 14 -1 28 -8 31 -16 3 -7 9
-11 14 -8 5 3 12 -1 15 -10 3 -8 10 -13 15 -10 5 3 12 -1 15 -10 3 -8 10 -13
15 -10 5 3 12 -1 15 -10 3 -8 10 -13 15 -10 5 3 12 -1 15 -10 3 -8 10 -13 15
-10 5 3 12 -1 15 -10 3 -8 10 -12 16 -9 5 3 10 -2 10 -13 0 -13 30 -39 95 -82
52 -34 93 -66 90 -70 -6 -9 110 -90 130 -90 8 0 72 -38 143 -83 70 -46 164
-108 209 -136 45 -29 83 -56 85 -59 2 -4 18 -15 37 -25 31 -16 38 -16 80 -3
25 8 86 17 135 20 95 6 126 19 85 35 -13 5 -22 11 -19 12 22 8 270 33 270 27
0 -4 -9 -8 -20 -8 -11 0 -20 -4 -20 -10 0 -5 14 -10 31 -10 17 0 28 4 24 10
-3 5 15 7 47 4 39 -4 49 -3 38 5 -11 8 0 9 39 4 39 -4 52 -3 47 5 -5 8 9 10
46 6 39 -4 49 -3 38 5 -11 8 0 9 40 5 42 -4 51 -3 40 5 -11 9 -2 10 39 5 38
-5 52 -4 47 4 -5 8 9 10 46 6 35 -4 48 -2 40 4 -11 7 -7 11 12 14 15 3 29 1
32 -3 3 -5 15 -9 26 -9 20 0 20 1 4 18 -15 18 -14 19 41 32 52 11 120 17 241
19 24 1 41 5 38 9 -2 4 127 23 287 42 161 18 296 37 302 42 5 4 36 8 68 8 32
0 152 11 265 25 138 17 208 22 210 15 11 -31 43 -45 99 -43 7 1 11 -3 8 -7 -6
-10 22 -33 65 -55 19 -10 37 -21 40 -25 3 -5 32 -20 65 -34 32 -15 66 -33 75
-41 8 -7 53 -35 100 -61 47 -25 87 -50 90 -55 5 -8 110 -57 128 -60 14 -2 86
-42 99 -54 18 -19 81 -38 99 -31 8 3 12 2 9 -4 -8 -13 28 -30 54 -25 11 2 21
-1 21 -6 0 -6 5 -7 10 -4 6 3 10 2 10 -4 0 -5 -7 -11 -17 -13 -9 -2 27 -25 79
-52 59 -30 100 -46 108 -41 9 6 11 4 5 -5 -6 -10 -4 -12 9 -7 11 5 15 3 10 -5
-5 -8 -2 -9 10 -5 11 5 15 3 10 -5 -5 -8 -2 -9 9 -5 10 4 16 2 14 -5 -1 -6 4
-13 12 -16 9 -3 11 0 6 8 -5 8 -4 11 3 6 6 -4 9 -12 6 -19 -3 -8 15 -22 43
-36 26 -13 70 -38 98 -55 27 -18 73 -46 100 -61 28 -16 52 -31 55 -34 7 -8 93
-56 160 -89 30 -15 61 -33 68 -39 7 -7 21 -13 31 -13 9 0 22 -5 28 -11 5 -5
26 -11 46 -12 19 -1 33 -5 31 -8 -5 -8 66 -40 76 -34 4 3 6 -3 4 -12 -4 -14
31 -37 165 -110 104 -57 184 -94 205 -95 19 -2 33 -5 31 -8 -6 -10 205 -121
217 -114 7 5 8 3 3 -6 -6 -10 -3 -12 11 -7 18 7 18 6 2 -6 -16 -13 -16 -15 10
-26 15 -7 50 -28 77 -47 28 -19 60 -36 72 -38 12 -3 32 -12 45 -20 13 -9 40
-17 60 -18 20 -2 34 -6 32 -9 -2 -4 9 -12 25 -19 16 -6 38 -23 50 -36 12 -14
26 -22 31 -19 12 7 141 -63 153 -82 6 -10 27 2 83 48 41 33 72 64 69 68 -7 13
32 44 46 35 7 -4 10 -3 7 2 -3 5 4 18 15 28 17 16 19 17 14 3 -3 -9 -5 -17 -3
-17 10 0 81 64 81 73 0 7 8 11 18 9 19 -3 81 43 83 62 1 6 2 17 3 24 0 6 6 12
12 12 8 0 7 -6 -2 -17 -13 -15 -12 -15 12 1 18 11 25 23 22 35 -5 21 18 42 25
23 2 -7 8 -12 14 -12 13 0 130 86 187 138 25 23 50 42 55 42 4 0 6 6 3 14 -3
8 4 22 16 33 l22 18 -20 -24 c-19 -23 -17 -23 18 3 20 16 37 31 37 33 0 3 -8
-1 -17 -8 -16 -13 -17 -12 -5 3 8 9 19 15 25 13 7 -3 32 14 57 37 25 22 36 34
25 27 -18 -13 -19 -12 -7 3 8 9 19 15 27 12 7 -3 16 -1 20 5 3 6 14 11 24 11
20 0 51 30 51 50 0 9 -7 7 -21 -6 -22 -19 -22 -19 -8 3 8 13 20 21 29 18 8 -2
33 12 55 32 22 20 31 30 20 22 -18 -13 -19 -12 -7 3 8 9 19 15 26 12 7 -3 21
6 32 18 19 23 19 23 -1 8 -18 -14 -19 -14 -7 2 8 9 19 15 25 13 12 -4 67 38
67 51 0 3 -6 1 -13 -5 -8 -6 -17 -8 -20 -5 -13 13 98 88 115 78 6 -4 8 -3 5 3
-9 14 29 47 43 38 6 -3 10 -3 9 2 -4 15 13 43 22 37 5 -3 6 -10 3 -16 -4 -6
-2 -8 4 -5 15 10 42 -3 42 -19 0 -16 96 -67 111 -59 16 11 78 -15 90 -37 7
-13 7 -18 1 -14 -6 3 -13 2 -16 -3 -8 -12 143 -84 161 -77 9 4 11 1 7 -6 -5
-8 -2 -9 9 -5 10 3 17 2 17 -3 0 -5 14 -17 31 -26 17 -8 28 -11 25 -5 -4 6 -2
11 3 11 6 0 11 -8 11 -17 0 -15 2 -16 10 -3 8 12 10 12 10 -5 0 -15 2 -17 9
-6 5 7 10 9 12 5 2 -5 27 -20 56 -33 29 -13 50 -28 47 -32 -2 -4 0 -10 6 -14
5 -3 10 0 10 7 0 8 3 9 8 3 4 -5 12 -11 18 -12 6 -1 23 -4 37 -7 15 -2 53 -20
86 -38 33 -18 96 -53 140 -77 44 -24 77 -49 74 -54 -3 -5 0 -8 8 -5 8 3 87
-32 176 -77 89 -45 164 -80 166 -78 10 9 124 -50 147 -77 14 -16 82 -59 153
-95 l127 -67 0 31 0 31 -902 451 c-804 402 -904 450 -923 439 -19 -12 -390
-306 -905 -715 -118 -94 -273 -217 -343 -272 l-128 -101 -25 25 c-14 14 -31
22 -39 19 -8 -3 -15 -1 -15 5 0 6 -4 8 -9 5 -5 -3 -11 0 -14 8 -8 21 -95 66
-101 53 -2 -7 -5 -3 -5 8 -1 17 -3 17 -11 5 -9 -13 -10 -13 -10 0 0 9 -26 31
-57 49 -32 19 -130 75 -218 126 -88 50 -437 252 -775 447 -338 195 -813 469
-1055 608 -242 139 -521 300 -619 357 l-179 104 -186 -21 c-102 -11 -422 -47
-711 -80 -289 -32 -545 -61 -570 -64 -50 -7 -445 -51 -820 -92 l-245 -27 -280
155 c-256 142 -628 347 -945 520 l-125 68 95 -95z"/>
<path d="M49230 16725 c-80 -69 -144 -129 -143 -134 2 -6 -3 -8 -11 -5 -7 3
-24 -8 -37 -23 -13 -16 -28 -30 -34 -31 -19 -5 -482 -397 -473 -400 13 -5 213
144 211 156 -4 16 148 122 174 122 24 0 40 16 22 22 -6 2 5 15 24 28 20 13 34
27 32 30 -1 3 76 61 172 130 97 69 189 137 205 152 28 26 37 28 121 29 71 1
85 4 62 11 -16 4 -38 6 -48 4 -9 -2 -15 -1 -12 4 4 6 -96 32 -114 29 -3 0 -71
-56 -151 -124z"/>
<path d="M50241 16626 c2 -2 115 -29 251 -62 136 -32 245 -60 243 -63 -5 -4
122 -37 408 -105 56 -13 57 -13 57 8 0 19 -18 25 -218 72 -119 28 -221 48
-225 44 -4 -4 -117 19 -250 52 -221 53 -278 65 -266 54z"/>
<path d="M42206 14685 c-3 -8 -17 -15 -32 -15 -16 0 -36 -10 -50 -25 -18 -19
-32 -25 -64 -23 -22 1 -45 7 -51 15 -13 15 -43 18 -34 3 4 -6 -6 -7 -26 -3
-23 4 -30 3 -25 -5 5 -8 -2 -10 -25 -5 -23 4 -30 3 -25 -5 5 -8 -2 -10 -25 -5
-23 4 -30 3 -25 -5 5 -8 -2 -10 -25 -5 -23 4 -30 3 -25 -5 5 -8 -2 -10 -25 -5
-23 4 -30 3 -25 -5 5 -8 -3 -10 -26 -6 -25 4 -29 3 -18 -5 11 -8 5 -9 -25 -5
-30 4 -36 3 -25 -5 11 -8 5 -9 -25 -5 -30 4 -36 3 -25 -5 11 -8 7 -9 -19 -4
-23 4 -32 3 -27 -5 3 -6 2 -13 -4 -17 -5 -3 -10 -1 -10 4 0 6 -9 11 -21 11
-14 0 -18 -4 -12 -12 4 -7 8 -16 8 -19 0 -3 23 -31 50 -62 l51 -56 307 65 308
65 492 -100 c1170 -238 1880 -381 1890 -381 5 0 -3 11 -19 25 -16 14 -35 25
-42 25 -6 0 -11 6 -10 12 2 7 -8 14 -22 15 -22 2 -23 2 -5 -6 16 -7 12 -9 -17
-8 -40 2 -45 6 -28 23 8 8 -26 21 -107 43 -193 52 -774 191 -800 191 -13 0
-22 4 -19 9 6 10 -147 51 -191 51 -15 0 -62 9 -103 20 -41 11 -92 20 -112 20
-21 0 -38 5 -38 10 0 6 -9 10 -20 10 -11 0 -20 4 -20 8 0 4 -68 23 -151 42
-112 26 -153 39 -160 52 -6 10 -14 16 -20 13 -5 -4 -9 -1 -9 4 0 16 -28 13
-32 -2 -2 -10 -32 -6 -133 17 -71 17 -136 35 -143 40 -7 4 -16 6 -18 3 -3 -3
-37 4 -77 14 -87 23 -84 22 -91 4z"/>
<path d="M46372 14649 c-16 -25 -15 -29 6 -22 9 3 14 3 10 -1 -3 -4 -14 -9
-24 -10 -10 -2 -20 -8 -22 -14 -2 -8 3 -10 15 -5 10 3 15 3 11 -1 -3 -4 -14
-9 -24 -10 -10 -2 -20 -8 -22 -14 -2 -8 3 -10 15 -5 10 3 15 3 11 -1 -3 -4
-14 -9 -24 -10 -10 -2 -20 -8 -22 -14 -2 -8 3 -10 15 -5 10 3 15 3 11 -1 -3
-4 -14 -9 -24 -10 -10 -2 -20 -8 -22 -14 -2 -7 3 -10 12 -6 13 5 15 1 13 -17
-2 -13 -9 -24 -15 -24 -16 0 -62 -70 -62 -94 0 -12 -6 -21 -14 -21 -18 0 -132
-177 -128 -197 2 -8 -1 -13 -5 -10 -5 3 -22 -18 -37 -46 -16 -29 -24 -47 -18
-42 5 6 94 125 197 265 103 140 189 257 191 259 3 4 925 -91 1029 -105 127
-17 1799 -193 1803 -189 11 11 -51 23 -175 35 -73 7 -130 17 -127 22 7 10 2
11 -144 13 -102 2 -126 5 -142 20 -18 16 -23 17 -45 5 -20 -11 -37 -11 -90 -1
-36 6 -107 14 -158 17 -50 3 -110 9 -132 14 -22 4 -200 25 -395 46 -260 29
-344 41 -315 46 27 5 19 5 -24 2 -35 -2 -69 0 -75 5 -18 15 -86 25 -86 12 0
-11 -20 -10 -119 5 -18 3 -30 8 -27 11 3 4 -3 12 -13 20 -16 10 -25 11 -45 2
-21 -10 -29 -9 -45 5 -14 13 -24 14 -45 6 -22 -8 -32 -6 -54 10 -21 16 -54 23
-142 30 -63 6 -135 12 -160 15 -34 3 -39 2 -20 -4 14 -5 19 -9 12 -10 -7 -1
-11 -5 -8 -9 9 -14 -63 -11 -75 4 -6 8 -15 11 -20 8 -5 -3 -14 -2 -21 2 -8 5
-6 10 8 14 12 5 -6 10 -51 15 -38 3 -84 10 -101 15 -25 6 -33 4 -42 -11z"/>
<path d="M50978 8492 c-120 -323 -268 -722 -329 -887 -194 -525 -431 -1159
-445 -1190 -7 -16 -169 -446 -358 -955 -190 -509 -388 -1040 -441 -1180 -52
-140 -98 -262 -101 -270 -4 -12 -6 -13 -14 0 -10 17 -11 16 -38 -29 l-21 -35
-9 25 c-13 33 -176 407 -208 477 -26 58 -224 512 -514 1182 -205 473 -182 425
-196 405 -15 -20 -10 -28 -78 132 -31 73 -73 169 -94 215 -21 46 -89 201 -152
345 -62 145 -114 262 -115 260 -1 -1 -47 -85 -102 -187 -55 -102 -213 -392
-351 -645 -137 -253 -412 -759 -610 -1125 -549 -1016 -585 -1081 -593 -1073
-4 5 -26 89 -49 188 -24 99 -66 280 -95 403 -29 123 -55 225 -57 227 -2 2 -27
-101 -56 -228 -156 -689 -211 -929 -214 -932 -2 -1 -84 132 -183 296 -99 164
-183 298 -186 299 -4 0 -49 -112 -100 -250 -51 -137 -97 -246 -101 -242 -4 4
-75 118 -156 252 -82 135 -189 310 -238 390 -50 80 -139 225 -198 324 -78 128
-111 174 -117 164 -5 -8 -60 -154 -124 -324 -64 -170 -133 -353 -153 -406 -20
-54 -39 -98 -42 -98 -7 0 -17 46 -356 1495 -157 671 -309 1318 -337 1438 -28
119 -54 214 -58 210 -8 -9 -5 5 -269 -1168 -105 -467 -193 -851 -194 -853 -2
-2 -13 36 -24 85 -12 48 -59 253 -106 455 -48 203 -125 533 -172 735 -47 203
-114 492 -150 643 -138 587 -223 951 -255 1088 -23 99 -36 138 -41 125 -5 -10
-41 -166 -82 -348 -41 -181 -142 -631 -226 -1000 -83 -368 -196 -868 -250
-1110 -527 -2336 -540 -2392 -560 -2354 -4 8 -218 539 -476 1181 -258 642
-472 1164 -475 1160 -4 -4 -102 -295 -219 -647 -117 -352 -214 -641 -215 -643
-1 -1 -177 305 -390 680 -214 376 -393 689 -399 696 -7 10 -24 -42 -62 -185
-29 -109 -125 -472 -213 -808 -89 -335 -165 -618 -169 -628 -6 -15 -14 -6 -44
45 -43 75 -585 1025 -1072 1880 -250 439 -353 612 -358 600 -4 -10 -113 -417
-243 -907 -129 -489 -259 -980 -289 -1090 -29 -110 -81 -306 -116 -435 -34
-129 -77 -291 -95 -360 -18 -69 -46 -172 -61 -230 -18 -73 -65 -191 -154 -390
-71 -157 -159 -355 -197 -440 -345 -772 -928 -2049 -934 -2043 -4 5 -185 557
-404 1228 -218 671 -429 1321 -469 1445 -40 124 -101 313 -136 420 -34 107
-65 199 -70 203 -6 7 -53 -94 -278 -600 -25 -57 -49 -103 -52 -103 -4 0 -17
38 -30 85 -13 47 -26 85 -29 85 -6 0 -98 -151 -644 -1055 -159 -264 -295 -486
-302 -493 -10 -11 -51 102 -215 595 -111 334 -206 612 -210 616 -6 7 -86 -189
-478 -1166 -42 -103 -79 -184 -82 -180 -7 7 -80 331 -475 2097 -80 357 -149
662 -153 679 -6 25 -12 11 -35 -94 -16 -68 -50 -216 -76 -329 l-48 -205 -15
50 c-8 28 -19 48 -24 45 -5 -2 -106 -164 -225 -360 -119 -195 -269 -443 -335
-550 -65 -107 -139 -230 -163 -273 -25 -42 -49 -76 -54 -74 -4 1 -46 90 -93
197 -197 455 -379 859 -385 852 -3 -4 -41 -117 -83 -252 -296 -945 -591 -1859
-597 -1853 -3 5 -262 482 -575 1060 -383 709 -571 1048 -576 1039 -5 -8 -146
-331 -314 -717 -168 -387 -307 -705 -308 -707 -2 -1 -49 100 -104 225 -55 126
-257 581 -448 1013 -190 432 -351 794 -357 805 -9 17 -16 3 -47 -89 l-36 -109
-23 64 c-13 35 -33 87 -46 114 -12 28 -68 175 -125 328 -57 152 -105 275 -107
273 -3 -3 -82 -212 -177 -466 -95 -254 -177 -461 -182 -461 -5 0 -34 79 -64
175 -30 97 -57 176 -60 176 -3 0 -196 -432 -429 -960 -234 -528 -428 -960
-431 -960 -3 0 -131 289 -284 643 -154 353 -282 648 -286 655 -4 9 -65 -93
-160 -270 -84 -155 -351 -650 -593 -1098 -242 -448 -446 -826 -454 -839 -12
-19 -17 -21 -23 -10 -4 8 -164 507 -355 1109 -191 602 -351 1098 -354 1102 -4
4 -112 -231 -241 -522 -129 -291 -238 -526 -241 -522 -4 4 -164 266 -356 582
l-348 575 -75 322 c-41 177 -77 320 -79 317 -6 -6 -463 -2028 -576 -2549 -26
-115 -49 -218 -53 -228 -5 -12 -95 199 -281 663 -151 374 -277 680 -280 680
-4 0 -107 -302 -229 -670 -123 -369 -225 -670 -227 -670 -3 0 -125 199 -565
925 -150 248 -315 519 -366 604 -104 172 -94 169 -129 39 -10 -37 -21 -65 -25
-63 -4 2 -78 162 -165 355 -88 192 -162 347 -165 343 -4 -5 -46 -129 -94 -278
-48 -148 -165 -508 -261 -800 -152 -466 -558 -1716 -675 -2080 -23 -71 -45
-133 -49 -137 -6 -7 -605 1307 -655 1440 -16 43 -33 79 -37 82 -4 3 -128 271
-274 595 -147 325 -272 602 -280 616 -10 22 -370 1373 -752 2829 -47 179 -89
331 -93 339 -4 8 -95 -142 -257 -425 -137 -242 -465 -818 -729 -1281 -319
-561 -482 -837 -487 -828 -7 13 -146 534 -347 1305 -46 173 -85 319 -87 323
-4 7 -253 -416 -253 -429 0 -6 -531 -938 -540 -947 -4 -5 -103 279 -220 630
-117 351 -215 641 -219 645 -5 6 -349 -830 -397 -964 -6 -17 -4 -17 31 -2 55
23 52 12 -8 -28 l-54 -36 -152 -379 c-84 -208 -202 -503 -264 -655 -61 -153
-114 -275 -118 -270 -15 15 -71 226 -128 482 -33 146 -62 277 -66 292 -7 26
-8 27 -31 12 -23 -15 -24 -15 -35 12 -15 39 -79 238 -76 240 1 0 18 7 38 15
l36 14 -133 595 c-234 1048 -271 1213 -414 1850 -77 344 -142 629 -144 635 -2
8 -50 -36 -320 -294 l-90 -86 -73 -310 c-101 -429 -311 -1331 -363 -1560 -23
-104 -46 -197 -50 -205 -9 -17 -16 6 -55 190 -15 69 -94 424 -176 790 -212
946 -229 1023 -236 1040 -3 8 -25 -68 -49 -170 -111 -468 -279 -1185 -499
-2140 -177 -771 -199 -860 -204 -854 -3 3 -78 198 -166 433 l-160 428 -350
-578 c-192 -318 -354 -577 -359 -576 -4 2 -50 115 -100 251 l-93 249 -55 -89
c-30 -49 -112 -185 -183 -301 -71 -117 -131 -213 -135 -213 -3 0 -64 259 -135
575 -71 316 -132 572 -135 568 -4 -5 -48 -188 -99 -408 -50 -219 -94 -401 -96
-404 -3 -2 -7 -2 -9 0 -6 5 -314 575 -384 709 -77 148 -390 729 -477 885 -82
148 -273 501 -302 558 l-18 37 -39 -32 c-36 -29 -66 -38 -410 -115 -204 -45
-372 -83 -373 -83 -2 0 -16 27 -33 60 -17 33 -34 60 -39 60 -5 0 -24 -34 -42
-75 -18 -41 -40 -77 -49 -80 -9 -3 -23 -18 -29 -33 -7 -15 -110 -250 -228
-522 -118 -272 -226 -517 -238 -545 -21 -44 -302 -692 -341 -785 l-15 -34 -21
34 c-27 46 -28 47 -38 30 -7 -11 -11 -8 -20 15 -30 77 -228 606 -387 1030 -96
259 -177 472 -179 474 -2 2 -124 -24 -390 -84 -24 -5 21 -122 -703 1820 -104
281 -199 533 -210 560 l-20 50 -1 -3932 0 -3933 25600 0 25600 0 0 4540 c0
2497 -1 4540 -2 4540 -2 0 -101 -265 -220 -588z m-41774 -4440 c-97 -238 -109
-261 -128 -257 -11 2 -131 21 -266 40 -135 20 -246 37 -247 39 -3 2 -41 166
-39 166 1 0 60 21 131 46 72 25 211 74 310 109 99 34 216 76 260 93 44 16 81
28 82 27 2 -1 -45 -119 -103 -263z m-2301 -581 c21 -35 20 -55 -1 -146 l-17
-70 -59 103 c-32 57 -56 105 -54 106 5 5 92 34 103 35 6 1 18 -12 28 -28z
m-161 -43 c-11 -18 -64 -112 -118 -208 -53 -96 -103 -183 -110 -193 -10 -16
-16 -7 -41 69 l-29 88 60 108 61 109 90 29 c50 15 94 29 98 29 5 1 0 -14 -11
-31z"/>
</g>
</svg>
