<?xml version="1.0" standalone="no"?>
<!DOCTYPE svg PUBLIC "-//W3C//DTD SVG 20010904//EN"
 "http://www.w3.org/TR/2001/REC-SVG-20010904/DTD/svg10.dtd">
<svg version="1.0" xmlns="http://www.w3.org/2000/svg"
 width="2182.000000pt" height="1409.000000pt" viewBox="0 0 2182.000000 1409.000000"
 preserveAspectRatio="xMidYMid meet">
<metadata>
Created by potrace 1.15, written by Peter Selinger 2001-2017
</metadata>
<g transform="translate(0.000000,1409.000000) scale(0.100000,-0.100000)"
fill="#000000" stroke="none">
<path d="M0 11413 l0 -2678 68 0 c53 0 78 -6 117 -26 77 -39 72 -70 -19 -116
-28 -14 -75 -28 -108 -31 l-58 -5 0 -3313 0 -3313 43 -5 c23 -3 294 -22 602
-41 308 -20 1127 -71 1820 -115 693 -44 1865 -118 2605 -165 740 -47 1514 -96
1720 -110 206 -14 519 -34 695 -45 1227 -76 4601 -290 5135 -325 206 -14 553
-36 770 -50 217 -13 852 -54 1410 -90 558 -35 2007 -128 3220 -205 1213 -77
2556 -163 2985 -190 429 -28 787 -50 797 -50 17 0 18 291 18 6775 l0 6775
-10910 0 -10910 0 0 -2677z m2167 -192 c21 -6 30 -16 36 -44 14 -59 1 -67
-110 -67 -85 0 -94 -2 -91 -17 3 -14 19 -20 78 -26 41 -5 80 -13 88 -19 8 -7
12 -26 10 -47 l-3 -36 -82 -3 c-56 -2 -83 -7 -84 -15 0 -7 0 -33 1 -59 2 -70
-6 -86 -45 -94 -52 -9 -108 7 -122 36 -17 38 -28 361 -13 390 12 23 13 23 161
16 81 -4 160 -11 176 -15z m456 -20 c24 -9 27 -16 27 -56 l0 -45 -110 0 c-90
0 -110 -3 -110 -15 0 -17 21 -22 119 -28 82 -5 93 -13 89 -67 l-3 -35 -102 -3
c-100 -3 -103 -3 -103 -26 0 -28 28 -36 121 -36 32 0 69 -4 84 -10 24 -9 26
-14 23 -57 l-3 -48 -170 3 c-93 1 -179 5 -191 7 -37 8 -44 46 -44 230 0 95 3
181 7 191 6 15 21 16 172 11 91 -3 178 -10 194 -16z m229 -13 c9 -7 41 -48 72
-90 31 -42 59 -79 63 -81 5 -3 8 27 9 67 0 102 3 106 67 106 87 0 86 4 89
-225 l3 -200 -64 -3 c-74 -4 -80 0 -169 117 l-57 74 -5 -89 -5 -89 -60 0 c-56
0 -61 2 -73 28 -14 30 -30 351 -19 381 5 12 21 16 70 16 35 0 70 -5 79 -12z
m514 -19 c14 -12 26 -377 12 -401 -7 -14 -22 -18 -68 -18 -87 0 -88 3 -92 233
-2 158 -1 189 12 197 17 11 119 3 136 -11z m392 -10 c34 -13 79 -56 99 -93 18
-34 11 -41 -54 -51 -36 -5 -48 -2 -76 19 -70 54 -127 17 -127 -81 0 -44 5 -58
25 -78 35 -36 71 -32 110 11 31 34 34 35 72 25 21 -6 47 -17 58 -24 18 -14 18
-16 -6 -62 -33 -66 -71 -85 -169 -85 -123 0 -199 49 -236 152 -28 82 -12 183
38 230 57 53 179 70 266 37z m505 -33 c72 -41 99 -90 105 -185 4 -64 1 -84
-17 -118 -64 -126 -275 -141 -380 -28 -63 68 -85 167 -57 248 18 49 38 71 90
97 34 18 55 21 127 18 71 -3 93 -9 132 -32z m435 -1 c101 -30 162 -113 162
-221 -1 -141 -85 -213 -235 -201 -74 5 -133 34 -174 84 -97 118 -51 312 80
343 55 13 112 11 167 -5z m553 -36 c5 -8 9 -33 9 -56 0 -47 -14 -57 -75 -52
-19 2 -37 0 -40 -3 -4 -4 -6 -70 -6 -147 l2 -141 -54 0 c-86 0 -89 6 -98 161
-4 74 -8 135 -8 135 -1 1 -24 4 -53 6 -34 4 -56 12 -65 24 -14 19 -18 76 -5
88 4 5 92 6 195 4 149 -4 191 -8 198 -19z m271 -12 c18 -28 158 -365 158 -380
0 -14 -11 -17 -65 -17 -63 0 -67 1 -83 30 -16 28 -21 30 -79 30 -55 0 -62 -2
-69 -22 -9 -30 -22 -38 -61 -38 -42 0 -83 16 -83 33 0 15 114 359 125 377 10
16 146 4 157 -13z m335 -48 l36 -51 28 45 c15 25 33 48 39 52 17 11 121 -6
127 -21 3 -7 -16 -47 -41 -89 -25 -42 -46 -81 -46 -88 0 -7 27 -52 60 -100 33
-49 60 -92 60 -97 0 -19 -98 -27 -130 -10 -11 6 -33 30 -50 55 -17 25 -34 45
-38 45 -4 0 -20 -22 -37 -48 -28 -45 -33 -47 -79 -50 -58 -4 -96 4 -96 20 0 6
23 50 50 98 28 48 50 92 50 98 0 6 -23 47 -51 91 -28 44 -48 85 -44 90 3 6 33
11 66 11 l59 0 37 -51z m424 -4 c4 -22 8 -112 10 -200 l4 -160 -56 -3 c-37 -2
-59 2 -66 10 -13 15 -37 350 -28 379 6 17 14 20 68 17 l62 -3 6 -40z m746 -11
c15 -11 36 -37 47 -58 16 -33 17 -44 7 -77 -7 -22 -23 -46 -37 -55 -25 -17
-25 -17 -5 -38 25 -27 81 -138 75 -148 -3 -4 -34 -8 -69 -8 l-64 0 -37 63
c-42 69 -63 97 -76 97 -4 0 -8 -34 -8 -76 l0 -76 -55 4 c-31 3 -61 10 -67 16
-15 15 -25 372 -10 381 5 3 69 4 140 1 111 -4 135 -8 159 -26z m413 -11 c3 -3
7 -66 10 -141 l5 -137 82 -3 c93 -3 107 -14 101 -75 l-3 -32 -115 -3 c-64 -1
-133 1 -155 6 l-40 8 -7 174 c-4 96 -5 185 -3 197 5 20 9 21 63 16 31 -3 59
-8 62 -10z m-956 -233 c25 -9 26 -13 26 -84 0 -68 -2 -76 -29 -105 -37 -40
-78 -42 -87 -6 -4 17 -1 32 10 44 20 22 20 31 1 31 -30 0 -48 93 -23 118 14
14 67 16 102 2z m776 -40 c6 -12 10 -40 8 -63 l-3 -42 -60 0 -60 0 -9 46 c-13
70 -6 79 58 79 45 0 57 -4 66 -20z m8977 -14 c112 -57 174 -158 181 -298 5
-107 -15 -172 -71 -230 -101 -104 -251 -91 -358 30 -58 66 -83 139 -83 247 -1
79 2 97 27 148 61 124 183 165 304 103z m-8457 -1 c6 -3 10 -31 10 -61 l0 -54
-53 0 c-29 0 -58 5 -65 12 -13 13 -17 100 -4 112 7 8 96 1 112 -9z m-322 -495
c7 -11 20 -20 29 -20 18 0 83 -68 83 -86 0 -7 11 -22 25 -35 13 -13 25 -29 25
-36 0 -6 9 -15 20 -18 11 -3 20 -11 20 -16 0 -6 4 -8 9 -5 5 3 9 -6 9 -20 0
-16 -3 -21 -8 -14 -6 9 -9 9 -16 -1 -4 -7 -3 -14 2 -16 29 -11 39 -22 26 -35
-6 -6 -12 -19 -12 -28 0 -9 -5 -21 -12 -28 -14 -14 -21 -132 -8 -132 6 0 10
-4 10 -9 0 -9 -38 -24 -57 -22 -6 1 -15 -4 -19 -10 -5 -9 -2 -10 9 -6 10 4 17
1 17 -6 0 -8 4 -7 10 3 5 8 21 15 37 16 20 1 28 6 27 18 -2 13 1 14 11 6 8 -6
11 -18 8 -26 -6 -17 8 -19 24 -3 16 16 32 3 26 -21 -3 -13 -17 -22 -39 -26
-28 -5 -33 -10 -29 -25 5 -14 1 -19 -14 -19 -12 0 -21 -4 -21 -10 0 -5 9 -10
19 -10 11 0 22 -6 24 -12 3 -7 6 -1 6 14 1 15 6 30 13 34 8 5 9 2 5 -10 -4
-11 1 -29 14 -47 24 -34 18 -49 -11 -31 -16 10 -23 8 -45 -12 -26 -24 -32 -50
-15 -61 6 -4 7 1 4 12 -5 15 -2 14 14 -4 14 -16 22 -19 31 -10 8 8 14 8 23 -1
17 -17 48 -15 48 3 0 9 6 12 15 9 8 -4 15 -17 15 -31 0 -20 -4 -23 -21 -18
-14 5 -25 2 -30 -6 -7 -11 -11 -11 -17 -1 -5 6 -19 12 -33 12 -13 0 -32 0 -41
0 -46 -1 -58 -5 -58 -22 0 -10 -6 -18 -14 -18 -8 0 -13 7 -12 16 0 9 -9 20
-21 25 -14 5 -23 5 -23 -1 0 -6 -11 -10 -25 -10 -14 0 -25 -5 -25 -11 0 -6 9
-8 20 -4 11 4 20 2 20 -4 0 -6 -6 -11 -14 -11 -8 0 -17 -6 -19 -12 -4 -10 -8
-9 -17 2 -9 11 -13 12 -17 3 -6 -16 -33 -17 -33 -1 0 9 -3 9 -11 1 -6 -6 -18
-9 -25 -6 -8 3 -14 -1 -14 -11 0 -13 -11 -16 -55 -15 -31 1 -58 5 -60 9 -3 5
-14 6 -25 3 -11 -3 -18 -9 -15 -13 3 -4 -11 -8 -31 -8 -20 0 -40 -6 -45 -13
-6 -10 -11 -7 -18 11 -8 22 -10 22 -11 5 0 -15 -2 -17 -9 -6 -6 9 -18 11 -39
6 -18 -3 -33 -2 -37 4 -9 16 -54 13 -72 -4 -8 -9 -23 -13 -33 -10 -13 4 -20 0
-25 -14 -3 -11 -15 -23 -26 -26 -16 -5 -18 -10 -8 -21 13 -15 9 -16 -64 -17
-27 0 -36 -4 -33 -14 6 -14 8 -14 -147 -17 -67 -1 -104 2 -115 11 -9 7 -24 13
-32 13 -22 0 -97 53 -83 57 7 3 9 11 6 19 -3 7 -9 11 -15 8 -5 -3 -15 2 -22
12 -10 13 -15 14 -21 5 -10 -17 -37 22 -29 43 8 20 -4 20 -26 1 -16 -15 -17
-13 -14 15 5 38 12 52 24 45 5 -3 11 -1 15 5 3 5 2 10 -3 10 -6 0 -8 9 -5 20
3 10 8 19 12 18 38 -10 77 56 51 87 -10 12 -9 15 6 16 11 1 25 1 33 0 7 -2 10
2 7 8 -4 5 -2 12 4 16 6 4 7 11 4 17 -4 7 -2 8 5 4 6 -4 43 -8 81 -10 58 -2
70 0 71 13 0 10 3 11 5 4 3 -7 12 -9 20 -6 8 3 20 1 27 -5 16 -12 78 -12 95 1
8 7 12 5 12 -6 0 -11 9 -15 33 -13 17 2 36 -2 40 -8 6 -8 10 -7 14 2 2 6 9 12
14 12 6 0 8 -4 5 -9 -4 -5 3 -7 14 -4 11 3 20 1 20 -4 0 -16 47 -9 68 10 10 9
22 14 26 10 4 -4 11 -1 16 6 5 9 31 16 66 18 66 4 72 7 57 33 -10 14 -9 21 2
30 11 9 12 17 4 31 -5 10 -13 18 -17 18 -18 -3 -32 2 -32 11 0 6 9 10 19 10
16 0 18 5 11 34 -5 22 -3 39 3 45 8 8 6 11 -6 11 -11 0 -17 8 -17 25 0 13 -8
29 -17 35 -13 8 -14 13 -5 16 20 9 14 24 -10 24 -22 1 -22 1 4 17 15 9 29 27
32 38 3 12 28 45 56 73 27 28 50 55 50 60 0 5 16 12 36 15 20 3 43 12 51 19 9
7 41 14 72 15 89 2 93 2 86 13 -3 6 -2 10 2 10 5 0 14 -9 21 -20z m-4119 -12
c20 -7 50 -21 66 -30 17 -10 40 -22 53 -28 12 -5 22 -14 22 -20 0 -6 7 -18 15
-26 11 -11 13 -27 9 -57 -9 -59 -19 -74 -63 -96 -49 -25 -192 -35 -230 -15
-14 7 -55 27 -91 43 -68 32 -90 59 -90 110 0 33 32 86 62 102 50 27 189 37
247 17z m7623 -132 c5 -9 17 -16 28 -16 29 0 50 -11 50 -26 0 -7 9 -18 19 -24
11 -5 23 -20 27 -32 4 -13 15 -30 25 -39 23 -20 25 -59 4 -59 -8 0 -15 -7 -15
-15 0 -8 4 -15 9 -15 5 0 12 -7 15 -16 3 -8 2 -12 -4 -9 -6 3 -10 0 -10 -8 0
-8 -7 -18 -16 -21 -9 -3 -14 -13 -10 -21 3 -8 0 -18 -7 -22 -7 -5 -12 -14 -12
-22 0 -8 -9 -15 -19 -17 -23 -3 -40 -27 -24 -33 7 -2 14 1 16 8 2 6 8 9 13 5
12 -7 -15 -34 -35 -34 -19 0 -30 -17 -14 -22 17 -6 -6 -28 -46 -46 -25 -11
-31 -11 -38 2 -5 9 -16 16 -24 16 -9 0 -12 -5 -8 -12 5 -10 4 -10 -6 -1 -15
14 -60 -3 -60 -23 0 -7 -5 -16 -11 -20 -8 -4 -9 4 -5 27 6 31 5 32 -5 9 -10
-24 -11 -24 -25 -6 -10 14 -14 16 -14 5 -1 -8 -8 2 -17 21 -9 22 -17 30 -20
21 -3 -7 1 -17 8 -22 11 -6 9 -9 -8 -9 -15 0 -25 10 -34 33 -7 17 -18 46 -26
62 -11 26 -12 27 -10 6 1 -16 -4 -25 -16 -27 -14 -2 -16 0 -7 11 12 15 4 55
-13 67 -5 3 -10 19 -11 35 -1 21 -6 29 -23 31 -23 3 -33 22 -12 22 5 0 7 5 4
10 -4 6 -11 7 -17 4 -13 -9 -6 4 39 67 18 26 33 50 33 53 0 15 30 37 41 30 8
-4 9 -3 5 4 -4 7 -1 12 8 12 8 0 23 11 34 24 13 17 22 22 29 15 7 -7 15 -5 24
9 11 16 23 19 56 16 23 -2 44 0 47 5 9 14 78 4 88 -13z m3016 -124 c2 -7 12
-12 23 -12 11 0 31 -11 44 -24 14 -14 33 -30 42 -36 13 -8 14 -13 6 -16 -18
-8 -16 -24 3 -24 13 0 14 -3 4 -15 -6 -8 -8 -20 -4 -26 4 -7 -1 -18 -11 -25
-10 -7 -19 -27 -21 -44 -2 -18 -6 -36 -10 -41 -3 -6 -1 -16 6 -24 9 -10 6 -15
-12 -21 -13 -4 -27 -7 -31 -6 -5 1 -6 -6 -2 -17 11 -37 -30 -61 -104 -61 -95
1 -111 -1 -111 -11 0 -5 -12 -9 -26 -9 -29 0 -53 24 -54 53 0 10 -4 16 -9 12
-14 -8 -24 14 -23 52 1 18 -3 33 -9 33 -6 0 -7 5 -3 12 5 7 2 9 -7 6 -20 -8
-46 -16 -36 -11 11 7 8 31 -5 35 -7 3 -3 12 11 25 13 12 19 26 15 36 -3 10 -2
17 4 17 6 0 8 9 5 19 -3 13 2 23 15 30 12 6 24 20 27 32 4 11 16 25 28 30 12
6 36 18 54 27 38 20 184 23 191 4z m2585 -142 c17 -24 23 -41 17 -45 -6 -4 -8
-11 -4 -16 3 -5 10 -7 15 -3 6 3 7 -5 3 -23 -7 -26 -58 -83 -76 -83 -17 0 -23
-2 -36 -13 -14 -11 -33 -15 -92 -17 -55 -2 -74 2 -90 15 -8 7 -25 16 -37 19
-21 7 -29 26 -23 51 2 6 3 24 4 41 1 33 30 74 51 74 7 0 24 9 38 20 34 27 100
38 157 27 36 -7 51 -16 73 -47z m2341 -84 c22 -18 28 -32 28 -61 0 -61 -46
-85 -172 -89 -50 -2 -130 35 -130 60 0 8 19 27 43 44 23 16 47 34 53 39 17 14
74 29 114 30 22 0 45 -8 64 -23z m1983 -78 c18 -23 21 -56 7 -77 -19 -27 -73
-41 -157 -41 -140 0 -160 51 -42 106 57 27 175 34 192 12z m-11279 -23 c7 -13
14 -14 35 -6 22 9 27 8 27 -6 0 -15 1 -15 18 0 24 22 62 22 62 1 0 -10 -6 -14
-15 -10 -8 3 -15 1 -15 -4 0 -15 34 -17 56 -3 20 13 22 12 28 -12 7 -27 26
-35 26 -10 0 8 9 15 20 15 21 0 29 -20 8 -20 -9 -1 -8 -5 3 -13 8 -7 19 -21
23 -32 7 -19 8 -19 18 -2 9 18 10 18 24 0 8 -11 13 -13 14 -5 0 6 9 12 19 12
11 0 22 6 24 13 4 7 6 6 6 -5 1 -13 14 -17 59 -20 31 -2 60 0 63 5 3 5 9 2 12
-6 7 -19 -21 -31 -38 -17 -12 10 -25 4 -25 -12 0 -5 4 -7 10 -3 5 3 18 -3 30
-15 16 -16 28 -19 58 -14 35 5 38 8 34 34 -2 15 1 31 7 34 7 5 11 -3 11 -22 0
-22 6 -31 23 -36 36 -10 67 -7 68 7 0 10 2 10 6 0 2 -7 9 -13 14 -13 6 0 8 4
5 9 -3 5 3 11 14 14 22 6 26 -3 9 -20 -8 -8 -8 -17 0 -32 10 -17 16 -19 31
-11 13 7 21 7 25 -1 9 -13 7 -15 -32 -22 -26 -5 -35 -2 -47 14 -14 20 -86 44
-86 29 0 -4 15 -14 33 -20 24 -10 27 -14 15 -17 -10 -3 -18 -9 -18 -14 0 -5
-6 -8 -12 -7 -7 2 -12 -4 -10 -12 1 -10 -2 -9 -13 4 -13 18 -19 19 -48 8 -19
-7 -50 -12 -69 -12 -44 0 -70 -9 -62 -21 3 -5 10 -7 15 -4 5 4 9 1 9 -4 0 -6
-8 -11 -17 -12 -53 -1 -97 -10 -103 -19 -4 -6 -14 -8 -23 -4 -10 3 -17 1 -17
-6 0 -6 -4 -9 -9 -6 -5 3 -14 -1 -21 -9 -7 -8 -16 -12 -21 -10 -12 8 -49 -17
-49 -32 0 -7 -5 -13 -11 -13 -6 0 -22 -9 -36 -20 -14 -11 -21 -20 -14 -20 6 0
11 -5 11 -11 0 -8 -42 -10 -140 -8 -77 2 -140 8 -140 13 0 4 -11 6 -24 4 -14
-3 -31 -1 -38 3 -10 7 -9 9 5 9 25 0 21 13 -14 44 -26 23 -33 25 -47 14 -9 -7
-13 -8 -9 -2 11 18 -18 35 -50 29 -15 -3 -22 -2 -15 1 18 9 15 24 -6 24 -10 0
-24 6 -31 13 -12 10 -13 9 -7 -7 5 -14 3 -16 -6 -9 -7 5 -37 9 -65 8 -29 0
-53 3 -53 7 0 4 -7 8 -16 8 -8 0 -12 -4 -9 -10 3 -5 1 -10 -4 -10 -6 0 -11 5
-11 10 0 6 -13 9 -28 8 -15 -1 -33 2 -40 6 -7 4 -23 1 -36 -7 -22 -15 -23 -15
-22 13 1 19 6 28 16 27 8 0 29 2 45 6 17 3 24 4 17 1 -23 -10 -3 -20 32 -16
20 2 33 8 30 13 -3 5 7 9 21 9 19 0 26 4 22 14 -6 16 17 41 31 33 4 -3 14 -2
22 3 12 7 11 12 -5 31 -20 22 -20 22 3 17 16 -5 22 -2 22 10 1 14 5 12 20 -6
18 -22 22 -23 50 -10 16 7 30 18 30 24 0 5 9 20 21 33 13 13 19 30 16 42 -4
16 -3 18 8 9 9 -7 21 -7 41 1 16 7 38 14 49 15 11 2 39 9 62 15 23 6 46 8 52
4 6 -3 11 1 11 9 0 20 16 21 28 1z m-6429 -57 c25 -12 51 -29 58 -37 7 -9 13
-11 13 -6 1 21 29 -42 30 -67 1 -106 -97 -141 -276 -98 -111 27 -128 43 -126
118 2 39 7 51 33 74 58 49 183 57 268 16z m9151 2 c19 12 60 13 60 1 0 -5 27
-9 60 -8 32 0 65 -5 72 -11 8 -6 27 -13 43 -15 19 -3 29 -9 28 -19 -4 -20 75
-18 88 2 7 13 9 13 9 0 0 -16 38 -45 47 -36 3 3 -2 8 -11 12 -24 9 -20 19 9
20 18 2 25 -3 25 -17 0 -10 4 -19 10 -19 5 0 7 7 4 15 -5 12 3 15 37 14 24 -1
36 -3 27 -6 -10 -2 -18 -9 -18 -15 0 -7 16 -9 44 -5 32 5 47 2 56 -8 14 -17
50 -20 50 -4 0 5 -4 8 -9 5 -5 -3 -14 0 -20 7 -8 11 -4 13 19 9 35 -5 49 -21
29 -33 -7 -4 -10 -12 -5 -16 4 -4 14 0 21 10 7 10 18 16 25 15 7 -2 16 8 20
22 7 25 7 25 11 -5 3 -26 8 -30 36 -30 17 0 29 3 26 8 -2 4 3 7 11 7 9 0 15
-6 13 -12 -1 -7 5 -13 13 -13 8 0 19 -6 24 -14 7 -11 10 -11 17 0 6 10 9 8 9
-8 0 -12 6 -23 13 -26 9 -3 9 -7 -2 -20 -15 -19 -46 -23 -56 -7 -3 6 3 10 14
10 13 0 19 5 15 14 -4 11 -10 11 -30 2 -13 -6 -24 -16 -24 -22 0 -7 -7 -14
-14 -17 -11 -4 -13 -1 -9 11 6 15 5 15 -10 3 -9 -7 -14 -18 -11 -23 8 -13 -17
-29 -31 -20 -5 4 -23 7 -38 8 -24 1 -28 -2 -24 -17 6 -23 3 -24 -30 -2 -26 17
-26 17 -21 -5 5 -17 2 -22 -14 -22 -10 0 -16 5 -13 10 3 6 1 10 -4 10 -6 0
-11 -3 -11 -7 0 -5 -11 -13 -25 -20 -14 -6 -25 -7 -25 -2 0 5 -5 9 -11 9 -5 0
-7 -4 -4 -10 4 -6 -16 -10 -54 -10 -47 0 -62 -4 -70 -17 -8 -15 -10 -14 -16
10 l-7 28 -18 -29 c-15 -24 -24 -29 -51 -27 -24 2 -40 -4 -52 -19 -10 -12 -24
-21 -30 -21 -7 0 -12 -7 -12 -15 0 -21 -114 -39 -239 -39 -94 1 -100 3 -121
27 -17 20 -32 26 -64 26 -29 1 -40 5 -36 14 4 11 -13 16 -52 15 -6 0 -9 5 -7
12 7 16 -78 17 -88 1 -6 -8 -11 -7 -18 4 -14 22 -12 33 5 27 11 -5 11 0 -3 27
-9 19 -18 33 -19 32 -1 -1 -3 -43 -4 -94 -1 -51 -5 -92 -9 -92 -8 0 -20 99
-20 161 0 21 7 45 16 53 8 9 11 16 5 16 -6 0 -11 19 -11 43 0 31 3 38 10 27 5
-8 10 -25 10 -37 0 -12 4 -24 8 -27 5 -3 8 5 7 17 -3 32 5 47 24 47 14 0 14 2
1 10 -17 11 -17 11 27 15 l32 3 -22 -19 -22 -18 23 2 c12 1 22 5 22 9 0 4 19
12 43 18 23 6 49 14 57 17 8 4 20 7 25 7 6 1 11 11 13 24 2 14 10 22 23 22 10
0 27 9 36 20 13 14 20 17 30 8 9 -7 13 -7 13 0 0 5 8 8 19 5 11 -3 21 2 25 13
6 15 8 15 24 1 12 -11 22 -13 32 -7z m2410 -115 c0 -13 4 -13 27 2 25 17 27
17 21 1 -5 -13 1 -20 27 -30 19 -6 35 -16 35 -20 0 -4 13 -8 29 -8 31 0 50
-28 34 -52 -14 -22 -32 -81 -27 -89 13 -22 -142 -99 -203 -101 -38 -1 -75 11
-93 32 -18 19 -50 34 -68 31 -9 -2 -12 4 -8 17 5 13 1 22 -11 26 -14 6 -15 9
-3 16 11 7 11 11 1 24 -11 13 -11 17 3 22 9 3 16 12 16 19 0 7 7 18 15 25 9 7
14 19 11 25 -2 7 5 17 17 23 37 17 118 33 138 27 11 -4 19 -3 18 2 -3 15 1 23
11 23 6 0 10 -7 10 -15z m-9609 -353 c9 -406 10 -647 3 -639 -3 3 -10 144 -15
314 -5 169 -11 387 -15 483 -5 147 -4 173 7 162 11 -10 15 -82 20 -320z m6699
150 c15 -140 37 -268 39 -223 3 79 10 13 21 -184 50 -955 57 -1129 48 -1133
-5 -2 -8 -8 -8 -13 0 -6 5 -7 10 -4 6 3 10 -4 9 -17 0 -13 -3 -17 -6 -10 -2 6
-8 10 -12 7 -5 -2 -13 7 -19 20 -7 15 -8 26 -2 30 12 7 2 57 -14 68 -8 6 -7
10 2 14 10 4 10 8 -2 17 -9 6 -18 29 -21 51 -2 22 -9 67 -15 99 -5 32 -8 62
-6 65 3 4 0 27 -4 52 -5 25 -12 97 -15 160 -4 63 -11 161 -16 219 -5 58 -11
294 -14 525 -5 421 1 483 25 257z m-6436 -127 c14 -138 26 -268 26 -289 0 -46
9 -43 17 6 9 58 13 44 12 -38 -1 -61 -3 -71 -9 -44 -7 34 -7 34 -9 -12 0 -30
3 -48 10 -48 8 0 8 -4 -1 -15 -6 -8 -9 -18 -7 -22 19 -30 45 -1109 29 -1154
-7 -18 -10 -8 -15 46 -4 38 -11 71 -16 75 -6 3 -11 20 -13 38 -1 18 -6 32 -10
32 -4 0 -8 19 -8 43 0 23 -5 72 -10 109 -5 36 -12 92 -15 125 -3 32 -7 65 -10
73 -2 8 -6 71 -10 140 -3 69 -10 206 -15 305 -10 180 -5 844 6 879 13 42 24
-12 48 -249z m6315 130 c7 -49 16 -119 21 -155 8 -53 39 -396 55 -615 5 -69
14 -326 20 -585 3 -118 8 -276 11 -350 6 -130 5 -135 -15 -148 -12 -7 -21 -8
-21 -3 0 5 7 11 15 15 8 3 15 10 15 15 0 5 -11 4 -26 -2 l-26 -12 6 -157 7
-156 -57 -7 c-36 -5 -58 -13 -62 -23 -3 -9 2 -88 11 -176 26 -246 31 -352 18
-360 -19 -12 -12 -68 15 -113 14 -25 24 -46 22 -48 -4 -4 -185 -19 -220 -18
-16 0 -28 -3 -28 -6 0 -17 25 -29 49 -25 14 2 40 0 56 -5 17 -5 23 -10 14 -10
-17 -1 -34 -41 -18 -41 5 0 9 6 10 13 0 6 5 1 10 -12 11 -28 5 -51 -12 -51 -8
0 -8 4 1 15 10 12 9 15 -5 15 -18 0 -18 -20 1 -65 7 -18 6 -18 -9 -6 -9 7 -18
23 -18 35 -2 20 -2 20 -6 -1 -6 -32 -23 -29 -23 5 0 40 -13 55 -41 47 -22 -7
-22 -8 -4 -21 10 -8 16 -17 12 -21 -4 -3 -16 2 -27 12 -17 15 -20 16 -15 3 4
-9 1 -19 -6 -24 -7 -4 -14 -3 -17 4 -2 7 -24 9 -63 5 -76 -7 -129 15 -129 53
0 40 16 59 60 74 22 7 45 19 51 26 8 9 25 11 57 7 39 -5 44 -4 39 10 -12 31
-19 86 -13 96 4 6 20 -4 38 -24 29 -34 33 -35 97 -34 72 0 113 11 93 23 -7 4
-12 23 -12 42 0 34 0 34 -47 34 l-48 0 -3 38 c-1 20 -4 46 -6 57 -3 11 -5 26
-5 33 -1 6 -6 12 -12 12 -5 0 -7 -4 -4 -10 3 -5 0 -10 -7 -10 -7 0 -18 -10
-23 -22 -10 -22 -22 -26 -55 -16 -8 3 -12 3 -7 1 4 -3 4 -10 1 -15 -5 -7 -2
-8 7 -3 12 8 12 6 0 -8 -10 -13 -17 -15 -27 -6 -19 16 -17 6 6 -36 11 -19 16
-35 12 -35 -12 0 -51 47 -45 53 4 5 -30 60 -47 77 -3 3 -6 18 -7 34 -1 15 -16
61 -33 102 l-31 74 -9 297 c-5 164 -12 329 -16 367 -7 74 -1 86 44 86 13 0 20
4 17 10 -12 19 -73 11 -95 -12 -17 -18 -20 -19 -20 -5 0 25 -31 21 -37 -4 -5
-19 -8 -20 -17 -7 -10 14 -23 13 -118 -4 -82 -15 -105 -23 -101 -34 3 -8 0
-14 -6 -14 -6 0 -11 7 -11 15 0 8 -6 12 -14 9 -10 -4 -15 6 -18 41 -2 26 -1
51 2 56 4 5 82 24 176 43 161 32 180 34 397 35 l227 2 0 -56 0 -55 -47 -1
c-43 0 -45 -2 -22 -10 26 -9 27 -15 34 -98 l7 -88 39 11 c38 10 38 10 33 50
-3 23 -7 61 -9 84 -3 24 -7 48 -10 52 -3 5 -1 10 4 12 6 2 6 21 0 48 -5 25
-11 70 -15 100 -3 30 -11 63 -16 74 -7 13 -6 21 3 27 9 5 10 9 3 9 -8 0 -14
42 -18 128 -4 70 -13 222 -21 337 -16 231 -31 538 -40 830 -8 235 7 240 29 10
24 -241 45 -417 52 -424 2 -2 4 131 4 296 0 350 11 403 39 188z m5314 80 c36
-25 41 -35 38 -64 -2 -7 2 -10 8 -6 14 8 14 -1 0 -26 -20 -39 -50 -59 -101
-70 -73 -16 -124 -7 -154 28 -28 33 -27 27 -10 77 14 41 30 54 86 72 57 19 93
16 133 -11z m1856 -41 c39 -23 49 -44 39 -80 -9 -34 -25 -43 -98 -51 -57 -6
-122 4 -146 22 -18 14 -17 16 16 45 52 45 60 51 60 44 0 -3 7 -1 15 6 8 7 30
16 48 20 17 4 34 8 35 9 2 1 16 -6 31 -15z m-13650 -116 c7 -62 13 -131 15
-153 2 -22 8 -67 15 -100 6 -33 10 -76 10 -95 -2 -67 17 -619 22 -635 1 -5 -1
-45 -5 -88 -5 -43 -9 -101 -11 -130 -3 -87 -5 -97 -15 -97 -5 0 -10 10 -11 23
0 12 -2 68 -4 124 -2 56 -6 107 -10 113 -8 13 -10 37 -33 530 -14 301 -8 620
11 620 3 0 10 -51 16 -112z m11344 27 c3 -33 14 -127 26 -210 11 -82 25 -181
30 -220 7 -62 9 -49 12 110 2 99 4 196 5 215 1 19 3 62 4 95 l2 60 14 -55 c12
-52 23 -139 58 -490 26 -258 49 -1000 32 -1028 -4 -7 -2 -19 4 -27 10 -12 9
-16 -4 -21 -14 -5 -14 -9 0 -36 10 -20 12 -33 6 -37 -7 -4 -7 -52 -2 -141 5
-74 5 -138 2 -141 -4 -4 -37 -10 -74 -14 l-66 -6 -7 83 c-4 46 -7 112 -8 148
l-2 65 44 10 43 9 -6 61 c-4 33 -9 87 -12 120 -5 58 -22 211 -30 264 -2 14
-15 145 -29 291 -14 146 -28 283 -30 304 -4 35 -11 172 -31 556 -4 77 -2 112
5 105 5 -5 12 -37 14 -70z m211 -110 c4 -38 8 -79 11 -90 2 -11 4 -24 4 -30 1
-5 6 -3 11 5 7 10 9 -2 9 -40 -1 -30 4 -120 10 -200 6 -80 12 -210 12 -290 1
-80 6 -153 11 -163 5 -10 8 -32 6 -50 -3 -31 -4 -31 -20 18 -18 55 -27 112
-34 220 -3 39 -11 151 -18 250 -18 226 -28 535 -17 480 5 -22 12 -71 15 -110z
m-9607 -346 c42 -16 72 -48 79 -87 5 -26 3 -37 -10 -44 -9 -5 -16 -16 -16 -23
0 -15 -21 -20 -34 -8 -3 4 -27 7 -53 8 -39 0 -50 5 -74 35 -42 49 -39 84 9
109 43 23 60 25 99 10z m763 -875 c0 -10 6 -14 18 -10 9 3 35 9 57 14 l40 9 2
-51 c3 -80 11 -155 18 -166 3 -5 2 -10 -3 -10 -5 0 -7 -21 -4 -46 3 -31 1 -45
-5 -41 -13 8 -23 -15 -23 -53 0 -38 -9 -60 -25 -60 -7 0 -15 7 -19 15 -7 18
-46 20 -47 3 0 -10 -2 -10 -6 -1 -3 10 -9 10 -25 0 -16 -9 -22 -9 -25 0 -2 7
-11 9 -19 6 -8 -3 -14 0 -14 6 0 6 -8 11 -19 11 -16 0 -27 17 -35 51 0 4 -13
21 -28 40 -16 18 -29 40 -30 48 -3 37 -19 81 -28 81 -4 0 -10 9 -13 21 -4 16
-10 19 -28 14 -14 -5 -19 -4 -15 4 4 6 13 11 20 11 7 0 34 11 62 24 27 13 77
32 112 41 53 15 62 21 57 36 -4 13 -1 19 9 19 9 0 16 -7 16 -16z m12984 -22
c2 -4 8 -76 12 -160 l7 -152 -26 0 c-23 0 -25 4 -29 51 -1 28 0 57 5 64 4 8 3
16 -3 20 -5 3 -10 24 -10 45 0 39 -13 60 -25 40 -12 -19 -25 -10 -25 17 0 46
75 106 94 75z m-185 -27 c18 -18 27 -110 11 -120 -8 -5 -7 -12 6 -26 9 -10 19
-41 22 -68 3 -40 1 -52 -17 -70 -30 -30 -85 -28 -116 4 -30 29 -31 41 -6 55
28 14 30 13 42 -17 13 -34 32 -17 31 26 -1 39 -9 51 -33 51 -27 0 -26 46 1 55
25 8 30 75 5 75 -9 0 -18 -7 -21 -15 -4 -8 -17 -15 -30 -15 -19 0 -24 5 -24
23 0 55 86 83 129 42z m-309 -17 c22 -24 28 -96 9 -115 -8 -8 -7 -17 5 -34 10
-14 16 -44 16 -76 0 -61 -13 -73 -79 -73 -35 0 -43 4 -56 30 -18 35 -20 91 -3
108 9 9 9 18 0 37 -19 41 -15 102 8 125 27 27 74 26 100 -2z m-4000 -31 l0
-44 -50 -7 c-46 -6 -49 -8 -40 -27 6 -10 8 -24 5 -29 -3 -6 -1 -10 4 -10 6 0
11 10 11 23 0 17 2 19 10 7 5 -8 9 -42 8 -75 0 -49 -2 -55 -10 -35 -5 13 -6
35 -3 47 8 31 -15 21 -37 -17 -17 -29 -17 -30 4 -30 21 0 21 0 -2 -25 -13 -14
-29 -25 -37 -25 -18 0 -17 -19 2 -26 10 -4 15 -20 15 -46 0 -21 -4 -37 -9 -34
-5 3 -8 18 -8 33 0 15 -6 29 -12 31 -6 2 -11 10 -11 18 0 14 -12 19 -23 8 -9
-10 4 -34 19 -34 8 0 14 -5 14 -11 0 -6 -9 -8 -20 -4 -12 4 -20 2 -20 -6 0 -9
-4 -8 -15 1 -17 14 -20 46 -5 55 16 10 12 38 -5 31 -12 -4 -15 4 -15 42 0 26
-4 62 -9 80 l-10 32 52 1 c89 1 102 18 15 18 l-77 1 4 -122 c5 -145 1 -168
-26 -161 -15 4 -17 9 -9 18 7 9 7 15 1 19 -5 4 -13 1 -17 -6 -5 -8 -10 -6 -16
8 -4 11 -6 -15 -3 -61 3 -44 7 -163 9 -265 5 -211 -8 -122 -19 135 -3 83 -8
157 -10 165 -2 8 -6 66 -10 128 l-6 112 31 6 c48 10 46 24 -4 24 -32 0 -48 -5
-56 -17 -8 -13 -13 -14 -16 -5 -8 18 -54 15 -54 -3 0 -8 -4 -15 -10 -15 -5 0
-10 5 -10 11 0 12 -15 11 -202 -13 -63 -7 -88 -15 -88 -24 0 -8 -4 -14 -10
-14 -5 0 -10 5 -10 10 0 6 -6 10 -14 10 -15 0 -33 71 -22 88 6 10 92 25 281
48 71 8 131 16 132 18 1 1 95 3 208 5 l205 2 0 -44z m3805 17 c33 -24 27 -105
-13 -178 -18 -33 -32 -64 -32 -69 0 -5 18 -7 40 -4 37 5 40 3 40 -19 0 -20 -5
-24 -27 -24 -16 0 -49 -3 -75 -6 l-48 -6 0 32 c0 21 14 56 39 95 43 68 58 137
31 142 -8 2 -20 -7 -25 -19 -13 -29 -49 -31 -53 -2 -2 11 7 32 18 47 25 31 72
36 105 11z m-4513 -331 c5 -76 11 -144 13 -152 4 -9 14 -11 30 -7 20 5 27 2
34 -16 8 -23 9 -22 44 14 19 21 37 33 39 27 2 -5 12 -11 23 -13 15 -2 21 -12
23 -37 l3 -34 -66 -2 c-36 -1 -70 -5 -74 -8 -5 -3 -12 -58 -16 -122 -7 -126
-15 -161 -46 -189 -18 -16 -21 -15 -69 25 -43 36 -50 39 -50 22 0 -11 11 -27
23 -36 13 -8 30 -26 37 -40 7 -14 19 -25 26 -25 11 0 24 -21 24 -41 0 -13 -17
-11 -32 4 -7 8 -24 20 -37 26 -19 11 -25 11 -33 0 -8 -11 -9 -11 -5 1 3 14
-84 79 -107 80 -5 0 -25 12 -44 26 -29 23 -33 31 -28 57 6 29 5 30 -8 12 -7
-11 -12 -25 -9 -32 4 -10 -25 -13 -135 -13 -162 0 -392 -17 -408 -31 -7 -6
-16 -4 -24 6 -10 13 -9 15 9 16 19 1 38 5 44 8 6 4 183 12 259 12 48 0 98 4
110 9 19 7 14 9 -26 9 -39 1 -53 6 -72 26 -23 24 -28 25 -135 24 -83 -1 -114
2 -121 13 -8 10 -9 9 -5 -3 4 -14 -7 -17 -70 -23 -42 -3 -97 -6 -124 -6 -42 0
-47 -2 -42 -20 4 -15 0 -20 -15 -20 -11 0 -22 -4 -24 -10 -1 -5 -38 -13 -80
-16 -63 -6 -78 -4 -79 7 0 8 -2 23 -4 34 -1 11 -6 48 -10 81 l-7 62 218 6
c121 3 332 10 469 16 337 14 356 14 349 -5 -4 -8 -1 -15 5 -15 21 0 11 -35
-20 -68 -17 -18 -29 -35 -27 -38 3 -2 15 7 28 21 15 16 34 25 55 25 45 0 124
-29 138 -51 20 -32 27 -21 26 42 -1 46 -5 62 -18 66 -9 2 -23 8 -33 13 -9 5
-30 5 -50 0 -48 -14 -75 -12 -82 6 -12 32 33 79 83 86 18 2 28 -4 41 -27 23
-41 51 -44 68 -7 10 24 10 52 -3 158 -19 161 -20 233 -3 216 7 -7 15 -68 20
-149z m-10561 106 c4 -13 7 -39 8 -56 1 -26 -3 -33 -18 -33 -11 0 -23 -4 -26
-10 -3 -5 3 -10 14 -10 19 0 21 -6 21 -67 0 -99 9 -144 28 -141 18 3 17 11 26
-216 6 -142 5 -158 -10 -152 -29 11 -62 -4 -57 -25 3 -11 0 -19 -7 -19 -9 0
-11 10 -7 30 6 30 -7 50 -17 28 -3 -7 -3 -3 0 10 3 12 1 22 -3 22 -5 0 -9 24
-8 53 0 36 -5 58 -17 71 -12 13 -15 23 -8 31 13 15 3 42 -24 69 -19 19 -19 21
-3 24 31 6 17 28 -15 23 -7 -1 -18 27 -17 43 0 5 -5 12 -12 17 -7 4 -14 27
-15 51 -1 23 -5 62 -9 85 l-6 42 48 14 48 15 -82 1 c-71 1 -91 -3 -137 -26
-53 -26 -90 -25 -53 1 21 16 22 36 1 36 -10 0 -14 7 -12 23 2 15 20 31 58 52
63 33 101 40 220 39 81 -1 85 -2 91 -25z m5832 -128 c42 -53 48 -65 53 -122 9
-109 14 -134 25 -118 6 9 8 -8 7 -51 l-3 -65 -32 -3 c-31 -3 -60 -32 -47 -45
3 -3 -3 -3 -15 0 -15 4 -21 1 -21 -11 0 -9 -3 -16 -7 -16 -5 0 -9 102 -10 227
-2 125 -5 235 -9 245 -10 33 10 19 59 -41z m10095 -42 c2 -23 -2 -40 -12 -48
-11 -9 -104 -17 -303 -27 -159 -8 -362 -18 -451 -23 -90 -5 -172 -6 -183 -4
-15 4 -19 14 -19 49 0 39 3 44 23 45 12 0 193 11 402 24 209 12 416 22 460 21
l80 -1 3 -36z m-15178 -156 c0 -74 -1 -76 -18 -57 -9 10 -23 32 -30 47 -9 21
-18 27 -34 25 -28 -4 -36 -28 -9 -28 16 0 20 -6 19 -25 -3 -30 -41 -44 -69
-26 -24 14 -29 14 -29 -3 0 -10 -12 -13 -47 -11 -49 2 -75 25 -29 25 14 0 26
5 26 10 0 6 -20 10 -45 10 -34 0 -45 -4 -45 -15 0 -9 -7 -18 -15 -21 -11 -5
-13 -10 -5 -19 13 -16 4 -24 -21 -18 -21 6 -26 23 -6 23 9 0 8 3 -2 9 -7 5
-10 14 -7 20 4 6 12 9 17 6 5 -4 9 3 9 14 0 10 6 22 13 24 7 3 6 6 -5 6 -9 1
-20 -4 -23 -9 -12 -19 -25 1 -25 38 0 25 3 33 11 25 7 -7 58 -9 150 -6 99 4
139 2 139 -6 0 -6 5 -11 11 -11 6 0 9 7 5 15 -6 16 19 34 47 35 15 0 17 -10
17 -77z m6760 22 c19 -4 45 -16 57 -28 22 -19 89 -175 80 -184 -3 -2 -17 -1
-31 3 -20 5 -25 11 -21 25 3 10 -1 29 -10 43 -16 24 -17 24 -46 8 -16 -9 -29
-24 -29 -31 0 -11 -3 -12 -12 -3 -18 18 -48 -4 -48 -35 l0 -27 -33 37 c-18 20
-38 37 -45 37 -6 0 -12 5 -12 11 0 6 -7 17 -15 25 -8 9 -15 26 -15 40 0 13 -4
24 -10 24 -5 0 -10 -13 -10 -30 0 -43 -30 -37 -45 9 l-7 23 -17 -24 c-9 -14
-23 -22 -33 -20 -22 4 -24 -25 -6 -74 9 -26 8 -38 -6 -69 -10 -20 -25 -39 -34
-42 -48 -15 -72 -26 -72 -34 0 -5 7 -9 16 -9 8 0 22 -7 30 -15 10 -9 31 -14
59 -13 36 2 45 6 45 20 0 10 7 18 15 18 8 0 15 -5 15 -11 0 -5 12 3 26 18 l25
28 -6 -28 c-5 -25 -4 -27 14 -15 11 6 24 23 30 36 12 26 29 25 45 -1 8 -12 3
-26 -23 -62 -27 -38 -30 -46 -16 -51 8 -4 35 -1 59 6 23 6 56 10 72 8 17 -2
34 3 41 12 10 12 12 5 13 -41 0 -30 5 -60 11 -66 8 -8 -14 -11 -82 -11 -52 0
-128 -7 -168 -16 -91 -19 -94 -16 -87 74 l6 65 -63 0 c-62 0 -62 0 -80 38 -37
75 -86 34 -88 -76 -1 -38 -6 -67 -12 -67 -10 0 -36 -30 -37 -42 0 -4 7 -5 16
-1 12 5 15 2 11 -13 -4 -10 -11 -38 -16 -62 -7 -35 -7 -42 4 -38 8 3 4 -11
-10 -36 -13 -23 -21 -47 -18 -53 3 -9 -14 -15 -56 -20 -33 -4 -64 -4 -69 -1
-5 3 -12 39 -16 81 -6 68 -5 77 16 106 25 33 70 196 57 205 -9 5 -23 -19 -33
-59 -4 -16 -12 -27 -19 -24 -12 4 -13 20 -3 69 5 26 4 27 -14 15 -11 -6 -18
-18 -15 -26 3 -7 3 -29 -1 -48 -6 -30 -10 -34 -33 -31 -25 3 -26 6 -23 53 2
28 -6 92 -17 143 -25 110 -25 102 -5 102 9 0 14 -6 11 -13 -7 -19 12 -107 24
-107 12 0 12 17 -1 25 -14 9 -1 28 15 22 7 -3 36 6 65 20 61 29 149 35 195 12
16 -8 39 -29 50 -46 31 -50 50 -43 64 25 25 115 43 153 86 181 85 55 175 77
230 55 17 -6 46 -15 65 -19z m-1515 -162 c-4 -57 -11 -101 -15 -98 -9 6 -24
-108 -22 -165 1 -45 18 -159 27 -187 6 -17 3 -23 -8 -23 -12 0 -18 14 -23 51
-4 31 -11 48 -18 46 -8 -3 -10 6 -8 29 2 19 -1 41 -8 49 -17 20 -3 135 16 135
8 0 14 5 14 10 0 6 -4 10 -10 10 -5 0 -10 17 -10 37 0 56 23 203 32 203 4 0 5
-7 2 -15 -4 -8 -1 -15 5 -15 6 0 11 17 11 38 0 21 3 42 8 46 12 13 14 -42 7
-151z m6462 78 c26 -38 35 -98 31 -208 l-3 -83 -43 0 c-52 0 -101 25 -102 52
0 3 16 12 36 18 25 9 33 15 25 23 -7 7 -18 7 -35 -1 -24 -11 -24 -10 -20 36 3
25 9 52 15 58 6 7 8 18 4 24 -12 19 -23 10 -29 -23 -10 -55 -29 -74 -70 -69
-35 4 -36 5 -36 48 0 83 47 154 122 183 29 11 74 -14 105 -58z m-1687 30 c0
-10 -3 -33 -6 -50 -6 -27 -10 -31 -40 -31 -19 0 -34 -5 -34 -11 0 -8 12 -10
35 -6 l35 6 -1 -42 c-1 -53 -16 -143 -18 -106 0 15 -8 30 -17 33 -29 11 -65 6
-71 -9 -8 -21 6 -33 17 -15 5 8 10 12 12 10 2 -3 9 -16 16 -28 13 -23 13 -24
-20 -17 -18 4 -37 10 -42 13 -9 5 0 201 9 210 3 3 15 0 28 -5 22 -10 23 -9 19
13 -7 39 4 54 43 54 28 0 35 -4 35 -19z m5045 -16 c20 -19 25 -34 25 -73 0
-26 -5 -53 -11 -59 -8 -8 -7 -17 5 -34 9 -13 16 -42 16 -65 0 -45 -18 -67 -61
-78 -60 -14 -110 75 -74 130 15 24 15 27 0 44 -15 17 -15 19 2 28 17 10 17 11
0 29 -9 11 -17 27 -17 37 0 24 45 66 70 66 12 0 32 -11 45 -25z m-502 -47 c4
-24 7 -95 9 -158 2 -101 1 -115 -14 -118 -26 -5 -35 25 -40 125 -2 51 -7 95
-11 99 -4 4 -13 1 -22 -6 -22 -18 -26 -9 -15 30 12 43 38 70 65 70 19 0 24 -7
28 -42z m-6402 0 c0 -2 3 -67 6 -145 l6 -143 -49 1 c-35 1 -42 3 -25 8 14 4
25 15 27 28 3 16 0 21 -11 17 -8 -4 -15 -10 -15 -15 0 -5 -4 -9 -10 -9 -5 0
-10 7 -10 15 0 8 -4 15 -10 15 -5 0 -10 -5 -10 -10 0 -6 -8 -10 -17 -8 -14 2
-18 -3 -16 -23 1 -26 0 -27 -80 -33 -45 -3 -104 -7 -130 -8 -27 -1 -50 -6 -53
-10 -3 -5 -2 -34 2 -64 l7 -56 123 7 c70 4 124 3 124 -2 0 -5 -9 -17 -21 -26
-11 -10 -18 -21 -14 -25 3 -3 10 0 15 8 5 8 12 12 15 8 3 -3 0 -12 -7 -19 -7
-8 -15 -25 -16 -38 -2 -13 -8 -33 -12 -45 -9 -21 -9 -21 -9 2 -1 24 -20 29
-39 10 -9 -9 -12 -9 -12 1 0 11 -3 11 -15 1 -8 -7 -13 -16 -10 -20 6 -10 -41
-34 -54 -26 -7 5 -8 1 -5 -9 4 -9 1 -27 -6 -40 -9 -17 -10 -31 -2 -53 11 -33
8 -42 -19 -42 -15 0 -19 10 -21 58 l-3 57 -31 -3 c-27 -3 -34 2 -45 28 -13 28
-39 42 -39 20 0 -5 -9 -10 -20 -10 -11 0 -20 5 -20 10 0 6 -23 10 -51 10 -45
0 -50 -2 -44 -17 22 -59 35 -253 17 -279 -4 -6 -24 -17 -45 -25 -37 -13 -40
-12 -57 9 -10 12 -20 28 -23 35 -2 8 -29 11 -89 10 -99 -3 -98 -4 -98 99 l0
58 40 6 c54 9 51 24 -5 24 l-44 0 -3 58 -3 57 -64 -3 c-63 -2 -86 -14 -76 -39
2 -6 7 -28 11 -47 5 -32 4 -36 -14 -36 -11 0 -22 -7 -26 -15 -3 -8 -12 -15
-21 -15 -8 0 -15 -4 -15 -8 0 -5 19 -8 43 -8 42 1 42 1 42 -34 0 -33 -2 -35
-35 -34 -19 0 -37 -3 -40 -7 -3 -4 -49 -9 -102 -10 l-97 -4 -11 45 c-13 48
-14 181 -4 268 l6 52 67 0 c36 0 97 3 134 7 64 6 68 5 74 -16 3 -11 10 -21 15
-21 6 0 8 9 5 20 -6 25 2 27 141 35 109 7 112 6 112 -14 0 -12 5 -21 11 -21 5
0 7 4 4 10 -3 5 1 19 9 31 14 20 11 25 -34 83 -84 107 -90 111 -186 115 -46 1
-84 7 -84 12 0 16 -171 11 -189 -5 -21 -19 -103 -25 -109 -8 -2 7 6 12 20 12
28 0 78 21 78 33 0 11 274 7 335 -4 27 -5 56 -16 65 -24 21 -19 30 -19 30 0 0
8 5 15 11 15 5 0 8 -3 6 -7 -3 -5 26 -7 64 -6 45 1 67 -2 63 -9 -4 -6 -1 -8 7
-6 8 3 13 11 12 17 -2 6 2 11 7 11 6 0 10 -8 10 -17 0 -15 1 -15 13 1 13 18
14 18 21 1 6 -17 7 -17 21 1 14 19 14 19 15 -1 0 -17 2 -17 10 -5 5 8 10 10
10 4 0 -15 72 -16 82 -1 5 8 8 7 8 -6 0 -13 7 -17 28 -15 21 2 27 -1 26 -14
-1 -10 2 -18 6 -18 5 0 11 -8 14 -17 3 -10 4 44 2 119 l-4 137 31 4 c35 4 377
8 378 5z m333 -14 c8 -20 8 -189 0 -181 -3 3 -17 2 -30 -3 -18 -7 -22 -6 -18
5 3 7 12 11 20 8 17 -6 19 13 2 20 -10 4 -9 8 2 16 8 6 10 11 4 11 -6 0 -17
-7 -24 -15 -18 -22 -26 -18 -25 12 0 18 -6 29 -17 31 -14 3 -16 -1 -12 -15 5
-13 1 -11 -11 5 -9 13 -23 21 -31 18 -7 -3 -20 2 -29 10 -12 13 -15 13 -15 1
0 -16 -29 -77 -36 -77 -3 0 -4 6 -3 13 5 44 -4 48 -20 8 l-18 -44 -6 63 c-4
35 -7 76 -7 91 l0 28 128 4 c70 1 130 4 133 5 4 1 10 -5 13 -14z m4515 -9 c16
-8 40 -12 54 -10 21 4 27 0 36 -26 16 -46 15 -75 -2 -60 -8 6 -17 8 -20 4 -4
-3 -13 0 -22 7 -19 15 -28 9 -19 -14 4 -10 18 -16 39 -16 39 0 56 -27 29 -47
-10 -7 -12 -13 -6 -13 7 0 12 -6 12 -12 -1 -18 -46 -68 -61 -68 -7 0 -2 -9 11
-20 l23 -20 -81 0 c-78 0 -82 1 -82 23 1 12 9 47 20 77 17 50 21 55 50 57 25
2 31 0 26 -12 -4 -11 2 -15 22 -14 15 0 21 3 15 6 -7 2 -13 11 -13 18 0 7 -16
19 -35 25 -19 6 -35 15 -35 20 0 13 -37 22 -59 15 -13 -4 -17 -12 -13 -32 3
-17 1 -24 -6 -19 -6 4 -11 22 -10 42 1 27 10 43 40 69 43 40 48 41 87 20z
m-1764 -45 c13 -14 33 -20 78 -22 79 -4 85 -23 13 -38 -31 -6 -56 -13 -56 -15
0 -2 30 -22 68 -45 37 -23 79 -54 94 -67 26 -25 26 -25 33 -4 7 22 29 28 40
10 10 -15 -22 -46 -56 -53 -25 -5 -29 -10 -29 -36 0 -41 -22 -62 -55 -54 -21
5 -24 3 -19 -11 8 -20 4 -19 -44 10 -38 24 -56 71 -36 96 19 21 18 30 -3 27
-14 -2 -19 11 -30 71 -7 41 -19 92 -28 113 -12 31 -12 38 -1 38 7 0 21 -9 31
-20z m-6802 -62 c8 -18 13 -34 11 -36 -3 -4 -238 -21 -241 -18 -1 1 3 18 9 38
12 40 8 39 145 46 62 3 62 3 76 -30z m7674 -158 c21 -8 30 -17 26 -27 -4 -10
-9 -11 -16 -4 -18 18 -49 13 -45 -6 3 -13 12 -17 31 -16 l27 2 0 -74 c0 -66 2
-73 18 -68 24 6 45 -20 48 -60 3 -46 -5 -67 -25 -67 -14 0 -17 6 -13 25 2 15
0 25 -7 25 -6 0 -11 7 -11 16 0 12 -6 15 -21 11 -43 -11 -66 8 -80 67 -9 41
-9 59 -1 69 6 7 9 23 5 35 -3 13 -1 22 6 22 17 0 13 31 -6 45 -21 16 -8 38 15
26 9 -5 31 -15 49 -21z m-7273 -30 c17 0 106 -86 106 -103 0 -4 -11 -12 -25
-17 -27 -10 -30 -17 -16 -39 6 -10 13 -11 29 -2 28 15 39 -4 12 -21 -11 -7
-20 -18 -20 -25 0 -17 -6 -16 -35 3 -29 19 -32 34 -7 35 13 0 12 2 -5 9 -25
10 -27 17 -14 39 13 19 -27 71 -53 71 -23 0 -50 35 -40 51 3 6 16 8 28 5 11
-3 29 -6 40 -6z m-7577 -45 c17 -24 17 -45 -1 -45 -8 0 -16 10 -18 23 -3 19
-9 22 -48 22 -40 -1 -45 -3 -42 -22 2 -13 -4 -26 -16 -32 -25 -13 -165 -12
-174 2 -9 15 18 65 39 70 10 3 69 4 132 2 97 -2 116 -5 128 -20z m3749 -28
l16 -34 105 5 c102 5 106 4 124 -19 16 -21 28 -24 111 -30 60 -4 106 -12 128
-24 19 -10 84 -64 143 -121 69 -66 116 -104 130 -104 37 0 51 -14 36 -37 -16
-26 -5 -57 17 -49 30 11 64 -21 64 -59 0 -28 -4 -35 -20 -35 -13 0 -20 7 -20
20 0 14 -7 20 -21 20 -16 0 -19 -4 -14 -20 3 -11 2 -20 -3 -20 -12 0 -22 -49
-12 -55 4 -2 30 -1 58 4 l52 8 0 -39 c0 -22 7 -46 15 -54 9 -10 15 -34 15 -65
0 -27 5 -49 10 -49 6 0 10 5 10 10 0 15 27 12 33 -4 7 -17 -12 -36 -36 -36
-11 0 -21 -9 -24 -21 -7 -25 -41 -39 -94 -39 -42 0 -53 14 -18 23 12 3 18 10
14 16 -4 7 -45 9 -118 6 -62 -2 -200 -7 -307 -10 -107 -3 -258 -15 -335 -25
-77 -11 -160 -23 -185 -26 -52 -7 -39 -18 35 -29 49 -8 49 -8 17 -15 -40 -9
-122 7 -122 24 0 7 -11 25 -25 40 -13 14 -22 26 -20 26 3 0 -4 15 -14 33 -12
21 -27 34 -47 37 -28 5 -27 6 16 19 63 20 65 22 38 35 -17 8 -27 28 -40 74
l-17 63 25 9 c41 16 30 38 -22 42 -35 2 -48 -1 -55 -14 -12 -22 -11 -72 2
-127 7 -33 7 -46 -2 -52 -10 -6 -268 -1 -276 6 -2 1 -6 47 -9 103 l-7 102 -56
1 c-31 1 -62 1 -68 0 -7 -1 -13 2 -13 7 0 19 27 32 66 32 41 0 42 1 40 33 -1
17 2 41 7 52 7 16 4 15 -11 -4 -26 -32 -50 -19 -28 15 22 32 21 34 -18 34 -19
0 -38 5 -41 10 -4 6 -22 17 -41 25 -26 11 -34 20 -34 39 0 25 41 66 65 66 6 0
38 13 71 29 78 39 136 55 206 55 47 0 59 3 64 18 6 21 44 25 44 4 0 -8 -8 -17
-17 -20 -11 -5 -13 -10 -6 -17 7 -7 43 -6 119 6 60 8 199 20 309 25 110 5 201
10 203 10 2 0 1 4 -2 9 -3 4 -103 7 -221 6 -209 -2 -242 2 -216 28 6 6 11 19
11 28 0 24 13 27 113 28 l87 1 16 -33z m14196 8 c8 -18 8 -32 1 -48 -11 -23
-18 -24 -140 -30 -70 -4 -284 -10 -475 -14 l-348 -6 0 46 c0 26 1 47 3 48 11
5 612 26 760 28 l187 1 12 -25z m-12085 -34 c8 -22 18 -30 39 -33 16 -2 -20
-3 -81 -3 -140 -1 -242 -17 -260 -42 -7 -10 -13 -19 -12 -20 1 0 72 5 157 13
85 7 190 14 233 14 42 0 77 4 77 9 0 11 -24 21 -53 22 -14 1 -8 5 15 11 34 9
40 7 60 -16 20 -22 34 -27 98 -32 134 -12 110 -23 -46 -24 -84 0 -198 -5 -255
-11 -57 -6 -117 -12 -134 -13 -26 -2 -30 -6 -28 -30 1 -15 26 -70 55 -122 45
-80 56 -94 73 -89 42 13 92 24 140 30 83 11 250 23 255 18 12 -11 3 -113 -12
-130 -12 -13 -14 -23 -7 -36 15 -26 -1 -45 -18 -21 -11 16 -17 17 -33 6 -26
-16 -28 5 -2 24 15 12 15 13 1 14 -25 0 -41 -25 -33 -54 5 -22 12 -26 45 -26
42 0 69 -26 69 -67 0 -13 6 -32 12 -43 10 -16 9 -25 -6 -51 -19 -32 -19 -32 4
-51 12 -10 31 -18 41 -18 10 0 19 -4 19 -9 0 -12 -131 -24 -177 -15 -64 11
-80 27 -93 91 -6 32 -13 69 -16 82 -8 36 -67 91 -98 91 -42 0 -82 -26 -101
-66 -15 -31 -16 -53 -11 -127 l7 -89 -26 6 c-17 4 -25 2 -25 -6 0 -9 -2 -10
-8 -2 -9 14 -294 7 -439 -11 -47 -6 -51 -8 -38 -21 21 -21 19 -34 -5 -34 -14
0 -21 9 -26 38 -4 20 -13 49 -20 64 -8 15 -14 29 -14 31 0 2 46 7 101 10 56 4
104 8 106 11 3 3 2 10 -2 17 -6 8 -33 10 -101 5 -51 -3 -99 -9 -106 -11 -7 -3
-21 9 -30 25 -21 38 -62 55 -97 41 -14 -6 -48 -9 -76 -8 l-50 2 -3 73 c-3 67
-1 73 20 81 29 11 107 19 233 26 55 3 132 7 170 10 39 3 129 8 200 11 72 3
141 7 155 8 14 2 68 4 120 5 66 1 90 4 80 11 -9 6 -65 8 -133 5 -89 -3 -117
-1 -115 8 3 7 19 16 37 22 27 8 31 13 26 33 -7 27 -91 181 -108 199 -13 14
-97 20 -115 9 -16 -10 -50 -124 -57 -195 l-6 -64 95 7 c59 4 96 3 96 -3 0 -18
-11 -20 -340 -36 -346 -17 -326 -17 -307 -1 17 13 17 15 1 24 -25 14 -9 29 39
37 36 6 54 20 127 95 47 48 105 101 130 117 47 32 162 60 198 49 25 -8 45 15
46 54 1 32 -4 31 101 34 46 1 51 3 64 34 l15 32 76 0 c74 0 76 0 87 -29z
m7447 -33 c-4 -18 -8 -44 -9 -58 -2 -24 -5 -25 -86 -30 -99 -7 -102 -6 -114
23 -6 12 -20 26 -33 32 -12 5 -21 17 -20 25 5 23 45 24 77 1 21 -15 44 -21 87
-21 56 0 57 0 39 20 -16 18 -16 20 -2 20 10 0 17 5 17 10 0 6 12 10 26 10 24
0 25 -2 18 -32z m-13143 -29 c140 -1 216 -12 237 -33 12 -12 -22 -15 -229 -18
-234 -4 -297 -11 -268 -29 9 -5 2 -14 -22 -28 -47 -30 -140 -26 -153 5 -8 18
-18 21 -60 20 -44 -1 -52 2 -63 24 -14 28 -24 23 98 47 25 5 99 11 165 12 65
1 121 5 124 7 2 3 14 3 25 0 11 -3 77 -6 146 -7z m1086 -61 c21 -18 39 -33 41
-34 7 -4 45 -112 47 -133 1 -14 8 -27 16 -29 8 -2 28 -10 46 -18 17 -8 40 -14
52 -14 24 0 28 -18 6 -25 -51 -16 -50 -16 -35 -25 8 -6 28 -10 43 -10 16 0 26
-4 22 -10 -7 -11 -178 -14 -188 -3 -4 3 -2 12 4 19 23 28 -35 107 -76 101 -51
-6 -62 -38 -28 -78 8 -9 13 -20 12 -25 -4 -22 3 -32 35 -49 33 -18 72 -78 61
-95 -3 -5 -22 -7 -43 -5 -20 3 -41 5 -47 6 -14 1 -167 -20 -227 -31 -53 -10
-64 -8 -54 8 3 6 24 9 46 8 24 -1 45 3 52 11 7 9 14 10 23 3 9 -7 16 -6 25 5
10 12 15 13 20 4 5 -7 13 -8 21 -3 27 17 79 32 79 22 0 -5 5 -6 12 -2 9 6 9 9
0 12 -7 2 -12 11 -12 19 0 12 -3 13 -15 3 -8 -6 -19 -9 -25 -5 -6 4 -17 1 -25
-5 -8 -6 -19 -9 -25 -5 -6 4 -21 -1 -32 -12 -12 -10 -18 -12 -14 -5 11 18 -14
15 -37 -5 -11 -10 -17 -12 -13 -5 9 14 4 15 -52 2 -64 -15 -131 -20 -137 -10
-8 14 4 17 110 34 55 9 123 21 151 27 29 5 71 11 94 12 41 1 42 2 21 18 -15
12 -27 44 -40 101 -10 46 -26 104 -36 129 -22 55 -15 88 22 111 41 24 58 22
100 -14z m16588 -57 c3 -11 7 -83 9 -160 l3 -141 -23 0 c-27 0 -29 3 -12 30
10 16 10 22 -5 32 -12 9 -20 32 -23 73 -7 80 -11 90 -28 76 -35 -30 -35 43 1
81 31 33 69 37 78 9z m-4921 3 c24 -9 19 -21 -11 -32 -28 -10 -28 -10 8 -11
31 -1 38 -5 43 -26 4 -14 4 -30 1 -35 -17 -27 -158 -22 -169 5 -8 21 3 45 20
45 19 0 18 19 -2 27 -14 5 -12 8 7 19 25 14 77 18 103 8z m-5853 -168 c8 5 11
2 7 -7 -4 -11 5 -14 38 -15 24 -1 51 -7 59 -14 8 -7 15 -9 15 -6 0 4 13 -1 30
-10 20 -13 26 -20 17 -26 -6 -4 6 -6 28 -3 22 2 50 4 63 4 13 1 22 7 22 16 0
10 10 15 29 15 16 0 34 -7 41 -15 7 -8 25 -15 41 -15 19 0 29 5 29 15 0 10 10
15 26 15 21 0 25 -4 21 -19 -3 -13 5 -26 24 -40 20 -15 29 -30 29 -50 0 -26
-4 -29 -42 -34 -28 -4 -48 -13 -57 -26 -18 -28 -40 -26 -75 4 -16 14 -34 25
-40 26 -103 6 -173 2 -169 -8 3 -7 1 -13 -4 -13 -16 0 -35 47 -28 68 8 26 -31
82 -57 82 -10 0 -18 5 -18 11 0 6 -9 8 -20 4 -12 -4 -20 -2 -20 5 0 7 -7 9
-16 6 -11 -4 -15 -2 -11 8 5 12 1 13 -18 6 -31 -12 -33 3 -2 17 14 7 26 7 34
1 7 -5 18 -6 24 -2z m8925 -52 c0 -24 -3 -44 -8 -44 -4 0 -8 5 -8 11 0 6 -16
8 -42 5 -24 -2 -50 -5 -58 -5 -12 -1 -13 -3 -1 -10 19 -12 -145 -28 -499 -47
-63 -3 -118 -8 -121 -10 -3 -2 -80 -6 -170 -9 -90 -3 -191 -8 -224 -11 -117
-9 -270 -11 -295 -4 -23 6 126 19 411 36 106 6 142 15 120 28 -14 9 -15 46 -1
46 6 0 10 7 10 16 0 9 5 12 12 8 7 -4 35 -6 62 -4 28 1 74 4 101 5 28 2 50 4
50 5 0 3 48 7 215 15 339 17 416 20 431 17 11 -3 16 -15 15 -48z m-15216 -124
c19 -16 40 -30 45 -30 6 0 28 -17 49 -39 37 -38 37 -38 14 -45 -13 -4 -59 -11
-103 -16 -169 -20 -220 -30 -232 -47 -7 -9 -13 -20 -13 -24 0 -11 106 -21 153
-14 34 5 51 3 71 -10 l27 -18 -21 -23 c-20 -21 -24 -21 -55 -8 -80 33 -516 8
-586 -33 -28 -17 -29 -16 -59 12 -16 16 -32 37 -36 47 -3 10 -15 23 -26 29
-23 12 -19 0 10 -34 21 -24 7 -34 -17 -13 -25 23 -104 46 -150 45 -33 -1 -32
-2 19 -15 30 -7 60 -21 67 -30 15 -21 17 -38 3 -29 -6 3 -30 3 -53 0 l-44 -7
13 -50 c8 -28 11 -55 8 -59 -9 -15 -58 -10 -84 7 -65 43 -67 84 -7 135 l42 37
-27 7 c-24 6 -33 21 -29 47 0 4 -27 37 -60 73 l-61 65 46 0 c30 0 66 -9 99
-26 43 -21 48 -21 27 -5 -14 11 -28 21 -32 21 -5 0 -8 4 -8 9 0 5 15 11 33 15
48 9 550 35 729 38 170 2 182 -1 193 -53 4 -16 10 -29 15 -29 14 0 9 70 -7 85
-28 29 11 16 47 -15z m13703 -7 c-7 -19 -27 -22 -198 -29 -233 -9 -255 -10
-309 -19 -40 -6 -47 -5 -41 6 8 12 6 12 -8 1 -9 -8 -31 -12 -49 -11 -18 2 -39
0 -46 -5 -7 -4 -52 -10 -100 -13 -68 -4 -93 -2 -117 11 -16 9 -26 16 -22 16 5
0 2 7 -7 15 -8 8 -24 15 -36 15 -17 0 -19 -2 -8 -14 7 -8 17 -11 22 -8 5 3 6
-1 1 -7 -4 -7 -18 -11 -31 -8 -14 2 -27 0 -30 -5 -3 -4 -9 -6 -14 -3 -5 3 -31
-1 -57 -10 -45 -16 -110 -20 -176 -11 -21 2 -27 0 -23 -11 5 -12 -8 -14 -74
-11 -44 2 -80 0 -80 -4 0 -5 -8 -8 -17 -8 -16 0 -16 2 -3 10 11 8 -2 10 -45 8
-33 -1 -64 -4 -69 -7 -10 -5 -66 -11 -126 -14 -19 -1 -40 -5 -46 -9 -9 -6
-470 -41 -899 -67 -93 -6 -280 -20 -415 -30 -135 -11 -283 -22 -330 -25 -394
-26 -1052 -73 -1390 -101 -413 -34 -793 -62 -1010 -75 -254 -16 -725 -49 -925
-65 -182 -15 -388 -30 -525 -40 -41 -2 -160 -11 -265 -19 -104 -9 -269 -20
-365 -26 -96 -6 -258 -18 -360 -26 -220 -17 -246 -19 -645 -44 -170 -11 -368
-25 -440 -30 -71 -5 -211 -14 -310 -20 -99 -6 -274 -18 -390 -26 -419 -30
-398 -29 -452 -4 -26 12 -55 28 -63 35 -8 7 -37 24 -64 38 -29 16 -44 28 -35
31 8 2 120 11 249 20 287 20 594 46 599 52 5 4 -75 7 -126 4 -18 -1 -33 3 -33
8 0 5 42 12 93 16 187 13 385 25 497 31 63 3 126 8 140 10 14 2 81 7 150 10
69 3 152 7 185 10 99 8 438 19 465 16 14 -2 106 -4 205 -5 183 -2 364 -12 445
-24 60 -9 541 -9 710 0 220 12 598 38 705 49 264 26 282 29 270 50 -6 8 33 14
80 11 11 0 63 4 115 9 78 9 170 11 310 7 67 -2 419 15 560 27 297 26 403 35
454 41 l48 6 -5 38 -5 38 57 6 c31 3 86 8 124 11 37 4 67 11 67 16 0 6 4 8 9
5 5 -4 21 -2 35 4 14 5 157 14 318 20 161 5 352 12 423 15 364 15 1047 35
1217 35 165 0 366 9 1023 45 194 11 208 22 30 25 -157 3 -158 3 -65 10 52 4
252 8 444 9 193 1 352 4 355 7 3 2 105 3 227 2 168 -2 220 -6 217 -15z m-6514
-29 c2 -2 -3 -4 -13 -4 -9 0 -14 -5 -11 -10 3 -6 23 -8 43 -4 20 3 53 7 72 9
19 2 58 9 85 14 57 11 156 14 179 5 9 -3 16 -13 16 -20 0 -20 -30 -30 -40 -13
-7 11 -13 10 -29 -5 -20 -18 -69 -24 -229 -26 -25 0 -35 -5 -39 -20 -4 -14
-14 -20 -34 -20 -15 0 -30 -4 -34 -9 -10 -17 -96 -25 -105 -11 -5 8 -17 10
-34 6 -22 -5 -26 -3 -26 14 0 18 -5 20 -32 16 -102 -16 -146 -19 -276 -21
-114 -1 -145 1 -149 12 -3 8 -3 16 -1 19 8 7 316 32 385 30 53 -1 63 2 63 16
0 18 26 25 110 31 43 3 90 -2 99 -9z m5456 -104 c-16 -7 -14 -9 15 -9 61 -2
69 -18 14 -27 -59 -10 -108 -7 -112 6 -6 18 -30 11 -35 -10 -4 -17 -11 -20
-39 -15 -18 3 -34 10 -36 16 -7 18 -23 9 -17 -10 4 -15 -1 -20 -27 -23 -22 -4
-36 0 -44 10 -7 10 -16 12 -25 6 -19 -12 -186 -6 -210 7 -22 11 -43 3 -33 -13
3 -5 15 -8 25 -5 11 3 17 1 14 -3 -3 -5 3 -13 12 -19 15 -9 13 -10 -12 -11
-16 0 -67 -1 -112 -1 -46 -1 -83 -5 -83 -10 0 -5 -7 -9 -15 -9 -8 0 -15 5 -15
11 0 5 -5 7 -11 4 -6 -4 -8 -14 -5 -22 4 -10 0 -13 -12 -11 -9 2 -17 11 -16
19 1 13 -3 13 -32 -2 -20 -10 -54 -16 -84 -15 -34 1 -51 -3 -55 -13 -4 -9 -9
-10 -18 -3 -15 12 -50 7 -55 -7 -5 -16 -78 -13 -95 3 -11 11 -17 12 -26 3 -7
-7 -46 -11 -96 -11 -47 0 -85 -4 -85 -8 0 -4 -43 -8 -96 -8 -52 0 -93 -4 -90
-8 2 -4 -58 -8 -134 -9 -138 -1 -175 -7 -149 -24 9 -6 -2 -8 -30 -5 -29 4 -48
1 -57 -8 -8 -9 -36 -14 -72 -14 -32 1 -69 -5 -82 -12 -20 -11 -25 -10 -37 6
-9 13 -16 15 -21 8 -4 -6 -36 -14 -72 -18 -40 -4 -69 -12 -76 -21 -12 -17 -29
-21 -19 -5 3 6 -1 10 -10 10 -10 0 -15 -6 -12 -13 3 -9 -6 -14 -31 -15 -20 -2
-40 -8 -45 -15 -6 -8 -7 -4 -4 11 3 12 2 22 -1 22 -12 -1 -42 -27 -37 -32 3
-2 -31 -3 -75 -1 -51 2 -80 0 -80 -7 0 -5 -5 -10 -11 -10 -6 0 -9 7 -5 15 5
13 2 14 -16 4 -16 -9 -18 -13 -7 -20 9 -6 -1 -9 -31 -10 -25 -1 -49 -1 -53 0
-4 1 -17 -3 -28 -9 -10 -6 -70 -13 -132 -15 -130 -5 -204 -17 -172 -28 11 -4
43 -9 70 -13 53 -6 63 -10 51 -21 -8 -8 -64 -7 -198 3 -71 5 -88 3 -88 -7 0
-11 -2 -11 -9 1 -6 8 -7 18 -5 22 3 4 -27 8 -66 8 -70 0 -70 0 -64 -25 5 -20
2 -25 -18 -30 -37 -8 -106 -1 -120 14 -11 10 -6 12 26 9 25 -2 41 2 43 10 3 9
-11 12 -51 12 -31 0 -56 -4 -56 -10 0 -5 6 -10 13 -10 8 0 7 -3 -3 -10 -10 -6
-16 -5 -20 5 -4 12 -10 11 -39 -3 -26 -12 -36 -13 -39 -4 -4 14 -32 16 -32 2
0 -5 -9 -10 -21 -10 -13 0 -18 4 -13 12 4 7 3 8 -5 4 -9 -6 -9 -11 1 -23 11
-14 5 -15 -55 -11 -53 3 -67 1 -67 -10 0 -10 -7 -12 -25 -8 -18 5 -27 2 -31
-9 -5 -11 -19 -16 -48 -15 -22 0 -80 0 -128 1 -83 0 -138 6 -147 15 -9 9 12
18 57 25 l47 6 -57 2 c-70 1 -93 -6 -77 -25 9 -11 8 -14 -5 -14 -9 0 -16 7
-16 16 0 12 -12 15 -60 13 -34 -1 -63 -5 -65 -8 -2 -4 -29 -6 -59 -4 -43 1
-56 -2 -56 -13 0 -8 -4 -14 -10 -14 -5 0 -7 7 -3 16 5 14 1 15 -28 9 -19 -5
-42 -9 -51 -10 -10 -1 -21 -4 -24 -8 -4 -4 -15 0 -25 9 -11 10 -23 13 -31 7
-7 -4 -35 -8 -63 -9 -46 -1 -50 -3 -53 -26 -4 -34 -42 -46 -42 -14 0 12 -5 27
-11 33 -8 8 -8 13 0 17 6 4 11 3 11 -2 0 -11 48 -3 56 9 3 5 -15 9 -40 9 -25
0 -46 -4 -46 -10 0 -20 -46 -32 -127 -34 -45 0 -83 2 -83 7 0 4 -7 7 -15 7 -8
0 -15 -4 -15 -10 0 -5 -12 -13 -26 -16 -38 -10 -10 -24 49 -24 49 0 67 -19 20
-21 -16 -1 -41 -3 -58 -4 -45 -3 -85 6 -85 20 0 7 -16 15 -37 18 -21 3 -48 8
-61 12 -19 6 -21 5 -15 -10 6 -17 4 -17 -27 1 -24 14 -34 16 -37 7 -6 -18 -23
-16 -23 2 0 21 -12 19 -65 -10 -25 -14 -51 -25 -58 -24 -6 1 -22 1 -35 0 -33
-2 -16 -21 18 -21 32 0 100 -29 100 -42 0 -5 -5 -6 -11 -3 -6 4 -17 -1 -24
-11 -12 -15 -15 -16 -16 -4 -1 8 -1 18 0 23 2 12 -19 8 -25 -6 -2 -7 -17 -13
-32 -12 -20 0 -26 5 -24 18 2 10 -3 17 -13 17 -8 0 -15 -3 -15 -7 0 -5 -10 -9
-22 -10 -55 -4 -76 -9 -71 -15 2 -5 -3 -8 -11 -8 -8 0 -18 5 -21 10 -5 8 -12
7 -22 -2 -18 -15 -135 -20 -144 -6 -4 6 -14 6 -28 -1 -14 -8 -21 -8 -21 -1 0
5 -9 10 -20 10 -22 0 -27 -15 -7 -23 7 -3 4 -6 -7 -6 -13 -1 -17 -6 -13 -21 3
-11 1 -20 -4 -20 -5 0 -9 9 -9 19 0 21 -19 40 -21 22 -1 -6 -2 -17 -3 -23 -1
-13 -48 -12 -54 0 -1 4 -7 14 -12 22 -8 13 -11 13 -19 1 -6 -9 -19 -12 -37 -8
-16 3 -51 1 -79 -3 -36 -6 -58 -4 -78 5 -15 8 -34 12 -42 9 -7 -3 -25 2 -39
11 -14 9 -31 13 -37 9 -7 -4 -18 1 -25 11 -11 15 -16 16 -29 5 -13 -11 -21
-11 -36 -2 -16 10 -21 10 -25 -3 -5 -12 -17 -15 -49 -11 -24 2 -46 2 -49 -1
-10 -10 -76 -10 -76 1 0 6 -4 6 -12 -2 -8 -8 -17 -8 -30 -1 -11 6 -31 8 -45 4
-18 -4 -24 -2 -21 7 3 7 27 17 54 22 76 13 83 17 54 28 -24 9 -193 12 -236 4
-11 -2 -67 -7 -125 -11 -147 -9 -211 -22 -231 -48 l-17 -22 6 22 c5 23 5 23
-100 19 -58 -2 -110 -7 -115 -10 -6 -3 -102 -8 -214 -10 -210 -5 -404 -21
-424 -37 -6 -5 -20 -6 -29 -2 -14 5 -17 3 -12 -10 5 -13 -2 -18 -29 -23 -24
-4 -34 -11 -30 -20 3 -8 2 -14 -2 -15 -4 0 -43 -4 -87 -10 -44 -5 -114 -12
-155 -15 -72 -5 -76 -4 -89 19 -20 37 -47 31 -42 -10 1 -7 -5 -13 -13 -13 -10
0 -13 6 -10 15 4 8 1 15 -5 15 -13 0 -33 -35 -24 -44 3 -3 -10 -6 -30 -6 -28
0 -35 3 -31 15 4 8 1 15 -5 15 -6 0 -11 -9 -11 -20 0 -15 -7 -20 -27 -21 -16
-1 -48 -3 -72 -5 -30 -3 -50 1 -61 11 -19 17 -31 10 -22 -13 4 -12 0 -11 -17
5 -17 16 -31 20 -60 16 -31 -4 -51 2 -112 37 -41 22 -82 44 -91 47 -10 3 -18
9 -18 13 0 5 -16 18 -36 31 -26 16 -32 24 -23 29 8 4 133 15 279 24 146 9 351
23 455 31 105 8 237 17 295 20 58 3 130 8 160 10 30 3 125 9 210 15 85 5 178
12 205 15 28 3 201 14 385 25 184 11 349 22 365 25 17 2 85 7 151 10 67 3 132
8 145 10 13 2 186 16 384 30 494 36 584 42 705 54 132 12 305 25 680 51 162
11 358 25 435 30 77 6 174 13 215 16 77 5 470 35 710 54 74 6 351 26 615 45
264 20 491 38 505 40 14 3 99 10 190 15 91 6 197 13 235 15 168 12 372 26 525
35 91 5 221 14 290 19 69 6 195 13 280 16 85 4 169 9 185 11 17 3 107 7 200 9
94 3 170 5 170 6 0 0 15 2 34 5 19 2 37 6 39 9 3 3 55 5 116 4 71 0 104 -3 91
-9z m-10303 -264 c55 -4 89 -3 93 4 8 12 155 14 155 1 0 -13 -27 -21 -73 -21
-24 0 -48 -7 -59 -17 -16 -14 -52 -18 -226 -24 -114 -4 -215 -10 -225 -14 -23
-10 -109 4 -102 16 4 5 50 9 103 10 64 1 88 4 72 9 -14 4 -42 8 -62 9 -47 1
-61 21 -16 22 18 0 42 5 53 10 20 9 117 7 287 -5z m-2444 -42 c60 -17 66 -29
20 -38 -60 -12 -120 -39 -106 -47 16 -10 -28 -59 -54 -59 -10 0 -18 -6 -18
-12 0 -10 -3 -9 -9 1 -10 16 -64 18 -69 2 -2 -7 -34 -11 -85 -11 -73 0 -79 1
-61 15 19 14 18 14 -3 15 -14 0 -23 -6 -23 -15 0 -17 -25 -20 -35 -5 -3 6 2
11 12 11 17 1 17 2 0 6 -10 3 -28 -4 -39 -14 -17 -14 -22 -15 -26 -4 -3 9 -6
10 -12 2 -9 -16 -519 -29 -528 -14 -4 6 -72 13 -162 16 -181 7 -169 5 -150 17
9 5 54 13 100 19 205 24 317 32 502 33 212 1 273 12 134 23 -47 4 -89 11 -92
16 -3 5 6 9 19 9 13 0 37 6 53 14 73 36 162 46 374 40 136 -3 223 -10 258 -20z
m1802 -34 c11 -7 1 -10 -36 -10 -28 0 -64 -4 -80 -9 -43 -14 -494 -34 -523
-23 -47 17 1 26 168 29 92 2 216 7 276 12 160 12 178 12 195 1z m-1100 -69
c46 -5 87 -8 90 -6 13 8 299 -25 340 -39 89 -32 175 -82 227 -134 51 -51 64
-72 43 -72 -5 0 -10 4 -10 9 0 5 -10 11 -22 13 -13 2 -22 8 -21 14 1 5 -8 11
-19 11 -11 1 -28 9 -37 17 -50 45 -271 82 -606 101 -139 8 -165 13 -159 29 3
8 1 17 -5 21 -34 20 18 58 69 49 14 -2 63 -8 110 -13z m3079 -511 c28 -22 51
-47 51 -55 0 -20 -71 -84 -94 -85 -19 0 -126 85 -126 100 0 12 90 80 106 80 7
0 35 -18 63 -40z m-1380 -459 c11 -11 34 -27 51 -36 17 -9 30 -21 27 -28 -5
-15 -148 -66 -167 -59 -24 9 -81 76 -78 92 2 9 28 21 68 32 84 21 77 21 99 -1z
m-293 -59 c-2 -1 19 -26 45 -54 27 -29 49 -56 49 -61 0 -4 5 -5 10 -2 6 3 10
-1 10 -9 0 -9 7 -16 15 -16 9 0 18 -7 22 -15 3 -9 23 -34 44 -56 22 -22 39
-50 39 -62 0 -20 1 -20 13 -3 13 18 14 18 21 0 4 -11 3 -20 -3 -22 -6 -2 -11
-9 -11 -15 0 -8 4 -7 12 1 15 15 48 16 48 2 0 -5 -8 -10 -18 -10 -10 0 -47
-16 -84 -35 -50 -27 -68 -32 -75 -23 -16 21 -38 82 -35 97 2 7 -1 10 -6 7 -11
-6 -237 272 -229 281 3 3 23 7 44 10 21 3 39 6 41 8 4 4 51 -19 48 -23z m2867
-90 c37 -18 67 -37 67 -43 0 -6 5 -7 12 -3 6 4 8 3 5 -3 -4 -6 -22 -9 -42 -8
-19 1 -35 -2 -35 -6 0 -4 -25 -13 -56 -19 -40 -9 -53 -15 -43 -21 27 -17 -13
-29 -103 -29 -77 0 -91 3 -109 21 -20 20 -21 22 -4 32 10 5 46 7 81 4 36 -2
61 -1 58 4 -3 5 -15 9 -28 9 -14 0 -28 9 -35 24 -10 18 -28 27 -72 37 -33 7
-59 19 -59 25 0 9 37 12 148 10 144 -2 150 -3 215 -34z m-2946 -48 c26 -30 58
-73 70 -95 20 -35 21 -39 5 -39 -21 0 -54 20 -34 20 7 0 10 5 7 10 -4 6 -15 8
-26 5 -11 -4 -19 -2 -19 5 0 7 -7 9 -15 6 -10 -3 -27 5 -44 23 -35 35 -63 51
-93 51 -31 1 -74 25 -60 34 7 4 34 10 62 13 27 3 47 10 44 14 -3 5 8 9 25 9
24 0 40 -11 78 -56z m3548 -110 c47 -5 105 -37 105 -58 0 -21 -85 -46 -156
-46 -72 0 -99 8 -134 42 -13 12 -26 22 -28 20 -1 -1 -9 3 -16 11 -41 40 51 53
229 31z m-6409 -25 c163 -11 237 -27 134 -29 -57 -2 -52 -7 25 -26 l30 -7 -30
-7 c-44 -11 -183 -11 -235 1 -25 5 -107 13 -183 18 -75 4 -140 10 -143 14 -3
3 -3 11 2 18 5 9 49 11 173 7 182 -6 192 -2 31 11 -99 8 -101 8 -34 10 39 0
142 -4 230 -10z m3307 -90 c16 -4 34 -12 40 -17 7 -5 39 -12 72 -16 33 -4 78
-9 100 -13 22 -3 58 -6 80 -7 22 -1 42 -3 45 -6 3 -3 46 -16 95 -28 50 -12
113 -29 142 -37 29 -7 69 -16 89 -19 56 -9 87 -17 109 -26 18 -8 102 -25 165
-34 14 -1 42 -6 63 -11 29 -6 41 -4 50 8 10 14 20 14 60 6 47 -11 59 -22 33
-32 -8 -3 -17 1 -20 9 -3 8 -10 14 -16 14 -18 0 -11 -19 15 -36 23 -15 26 -15
51 5 20 16 30 18 40 10 8 -6 21 -8 30 -5 18 7 114 -22 114 -35 0 -5 -9 -9 -20
-9 -11 0 -20 5 -20 10 0 6 -4 10 -10 10 -13 0 -13 -27 1 -35 14 -9 58 -14 57
-6 -4 39 0 40 80 15 42 -13 101 -31 131 -39 64 -17 111 -37 111 -47 0 -8 -35
-2 -53 9 -19 12 -45 14 -51 4 -10 -16 25 -33 94 -44 9 -2 21 -7 28 -11 7 -4
20 -5 28 -2 8 3 13 2 10 -3 -3 -5 0 -11 8 -14 9 -4 16 3 20 19 4 16 11 22 18
18 9 -6 9 -9 0 -12 -13 -4 -17 -32 -4 -32 5 0 9 -7 9 -16 0 -18 4 -18 -243 26
-88 16 -201 34 -250 40 -49 6 -123 17 -164 25 -41 8 -230 33 -420 55 -190 22
-379 44 -420 50 -41 5 -151 17 -245 26 -197 18 -205 19 -182 37 10 6 20 31 23
55 5 38 4 42 -15 42 -12 0 -21 6 -21 16 0 8 5 12 10 9 6 -3 10 -1 10 5 0 8 6
8 20 0 16 -8 18 -8 14 4 -3 9 -15 13 -30 10 -13 -2 -24 0 -24 5 0 6 -8 8 -17
4 -14 -4 -13 -2 3 10 11 9 32 19 47 22 14 4 32 13 38 21 7 8 19 12 28 8 9 -3
29 -10 44 -15z m-724 -109 c86 -8 108 -13 128 -32 13 -12 21 -28 19 -34 -3 -7
5 -15 17 -17 12 -2 -75 -2 -193 0 -118 3 -237 9 -263 14 -26 5 -83 9 -125 9
-72 0 -114 11 -100 25 3 3 20 7 37 7 18 1 34 5 37 10 3 4 10 8 15 8 6 0 7 -4
4 -10 -4 -6 5 -5 22 1 71 29 215 36 402 19z m4655 -80 c6 -6 25 -10 44 -10 81
0 130 -120 112 -276 -5 -47 -14 -92 -20 -99 -9 -11 -2 -15 35 -21 46 -6 80
-28 70 -44 -9 -15 -206 -4 -255 13 -25 9 -61 17 -80 17 -34 0 -36 2 -49 48 -7
26 -23 70 -36 98 -34 72 -37 195 -6 227 26 29 27 40 1 32 -11 -4 -20 -2 -20 4
0 6 -7 11 -16 11 -9 0 -12 5 -8 11 8 14 214 3 228 -11z m-4706 -193 c24 -5 34
-3 38 8 4 8 12 15 20 15 8 0 11 -6 7 -17 -4 -11 -3 -14 6 -9 6 4 49 9 94 11
45 2 66 1 47 -2 -41 -5 -65 -23 -29 -21 13 0 42 0 64 -1 30 -2 35 -4 21 -10
-18 -7 -18 -8 -2 -14 9 -4 15 -10 13 -14 -10 -17 13 -53 33 -53 11 0 20 -4 20
-10 0 -5 -5 -10 -11 -10 -6 0 -9 -9 -6 -20 8 -31 -17 -38 -128 -34 -55 2 -111
4 -125 4 -19 0 -22 2 -11 9 10 6 0 8 -27 4 -32 -4 -42 -2 -42 8 0 12 -2 11 -9
0 -8 -12 -14 -13 -36 -3 -15 7 -36 10 -46 7 -11 -4 -19 -2 -19 4 0 6 14 11 30
11 23 0 30 5 30 19 0 11 5 23 10 26 6 4 7 11 4 17 -4 7 -9 6 -14 -2 -11 -18
-70 -3 -71 18 -1 15 -2 15 -6 0 -2 -10 -9 -18 -15 -18 -5 0 -8 6 -5 14 3 7 0
19 -6 25 -8 8 -3 11 21 11 18 0 33 -4 33 -10 1 -5 2 -14 3 -19 2 -17 16 -24
16 -8 0 8 3 22 6 31 5 12 0 16 -21 16 -15 0 -24 4 -20 10 4 6 11 8 16 5 5 -4
9 -1 9 4 0 7 7 7 21 -1 18 -11 23 -10 32 4 6 9 14 14 17 9 3 -4 20 -11 38 -14z
m1082 -47 c14 -5 61 -11 105 -14 44 -2 109 -9 145 -15 87 -14 203 -30 265 -37
47 -4 193 -23 350 -44 39 -5 147 -21 240 -35 94 -14 202 -30 240 -35 233 -31
324 -48 533 -101 41 -10 77 -18 80 -18 33 5 29 -6 -10 -29 -25 -15 -56 -40
-68 -55 -32 -41 -65 -131 -86 -235 l-19 -94 28 -24 c20 -17 27 -32 27 -59 0
-41 22 -38 -211 -26 -175 9 -185 13 -222 96 -13 27 -20 36 -26 27 -7 -11 -14
-11 -42 1 -19 7 -40 12 -48 9 -11 -3 -12 2 -7 23 4 17 3 24 -4 20 -19 -12 -11
-52 15 -69 28 -18 34 -46 9 -46 -9 0 -12 5 -8 12 5 8 -2 9 -24 5 -20 -4 -32
-2 -32 4 0 7 -11 8 -30 4 -26 -6 -30 -4 -30 14 0 12 -4 21 -8 21 -5 0 -19 10
-32 22 -16 15 -25 18 -28 10 -3 -10 -7 -10 -17 -2 -10 8 -19 8 -35 0 -12 -7
-47 -10 -78 -8 -42 2 -60 -1 -69 -12 -11 -13 -14 -12 -27 7 -11 14 -23 19 -36
16 -17 -5 -18 -8 -8 -21 11 -13 10 -14 -12 -9 -14 3 -45 9 -70 13 -25 3 -51
14 -58 23 -11 14 -14 14 -23 1 -8 -13 -11 -13 -23 3 -12 15 -15 15 -26 2 -16
-19 -31 -19 -24 0 7 17 -11 21 -21 5 -10 -17 -23 -11 -31 13 -9 29 -24 38 -45
27 -9 -5 -26 -7 -38 -5 -16 3 -21 -1 -21 -18 1 -19 2 -20 11 -5 12 21 38 13
35 -10 -4 -23 -81 -17 -107 9 -18 18 -17 49 2 49 14 0 10 26 -6 40 -21 17 -19
30 5 30 11 0 20 4 20 9 0 5 -14 5 -34 -1 -23 -7 -39 -7 -52 0 -18 11 -17 11 4
12 13 0 32 5 43 11 20 10 20 11 2 24 -23 18 -39 19 -25 2 9 -10 3 -13 -24 -15
-20 -2 -42 2 -50 9 -17 14 -19 -2 -3 -18 9 -9 -1 -11 -35 -9 -48 3 -61 9 -61
29 0 7 -5 12 -12 12 -6 0 -15 3 -19 8 -4 4 -20 7 -35 7 -17 0 -34 9 -44 23
-12 15 -19 18 -22 10 -10 -26 -21 -12 -19 26 0 23 5 37 11 33 16 -10 55 -13
55 -5 -1 11 -26 43 -33 43 -4 0 -4 -8 0 -17 6 -17 5 -16 -15 0 -12 11 -18 26
-16 35 4 13 2 12 -11 -3 -13 -16 -17 -17 -24 -6 -5 7 -14 11 -20 7 -5 -4 -16
2 -23 14 -15 23 -33 27 -24 5 3 -8 1 -15 -4 -15 -5 0 -12 9 -15 20 -4 12 -15
20 -27 20 -12 0 -36 11 -54 25 -18 14 -37 25 -43 25 -6 0 -11 7 -11 15 0 8 -7
15 -15 15 -8 0 -15 9 -15 19 0 11 -4 21 -10 23 -5 2 -10 26 -12 54 -2 29 -6
50 -10 48 -4 -2 -9 0 -13 6 -3 5 1 10 10 10 12 0 15 5 11 16 -5 14 9 15 132 9
75 -3 148 -10 162 -15z m2704 -210 c53 -8 104 -35 91 -48 -3 -3 6 -19 18 -36
29 -38 38 -61 44 -105 2 -19 9 -43 14 -54 54 -101 17 -138 -210 -207 -120 -36
-315 -53 -305 -26 5 12 0 16 -19 16 -14 0 -29 5 -32 10 -3 6 -18 11 -33 11
-24 2 -24 2 -4 6 31 6 27 19 -8 26 -42 9 -151 62 -177 87 -13 11 -23 27 -23
34 0 8 -8 20 -17 27 -10 7 -15 9 -10 4 10 -12 -22 -45 -44 -45 -40 0 -89 -34
-99 -69 -14 -51 6 -61 103 -56 96 5 103 -10 8 -18 -39 -3 -81 -13 -94 -22 -30
-19 -55 -11 -64 23 -8 32 12 131 39 194 19 45 86 118 108 118 14 0 56 -61 70
-102 6 -21 14 -38 17 -38 2 0 30 24 61 54 31 30 66 55 77 57 13 3 22 16 28 42
10 43 31 57 133 88 113 35 230 45 328 29z m846 -489 c0 -78 -18 -154 -43 -178
-12 -12 -48 -35 -80 -53 -33 -17 -69 -38 -82 -46 -16 -11 -25 -12 -30 -4 -5 8
-11 5 -20 -7 -7 -10 -16 -16 -18 -13 -3 3 -9 43 -13 89 -6 76 -5 84 10 78 11
-5 16 -1 16 12 0 30 26 46 55 33 15 -7 25 -8 25 -2 0 6 -4 10 -10 10 -25 0 -6
28 38 55 101 63 137 83 145 78 4 -2 7 -26 7 -52z m-842 -166 c13 -12 -29 -33
-80 -40 -58 -8 -289 3 -308 15 -7 4 21 11 67 15 43 4 95 11 114 15 38 10 196
6 207 -5z m167 -252 c-5 -10 -8 -21 -7 -24 3 -18 -63 -59 -139 -87 -47 -18
-89 -32 -93 -32 -11 0 3 62 18 77 12 13 218 93 225 87 2 -2 0 -11 -4 -21z
m-6645 -158 c107 -8 305 -19 440 -25 356 -16 510 -26 740 -47 243 -21 213 -29
-56 -14 -105 6 -250 11 -321 11 -71 0 -182 7 -248 15 -66 8 -212 19 -325 25
-220 13 -448 34 -457 44 -9 8 8 8 227 -9z"/>
<path d="M4094 11033 c-54 -38 -36 -168 26 -188 31 -10 68 2 81 26 18 34 13
109 -9 138 -19 26 -75 40 -98 24z"/>
<path d="M4580 10993 c-18 -23 -21 -38 -18 -80 6 -64 28 -93 73 -93 37 0 60
22 70 68 21 101 -69 176 -125 105z"/>
<path d="M6950 6633 c-111 -8 -313 -32 -318 -37 -6 -6 15 -156 25 -182 8 -20
53 -17 88 6 34 23 76 26 105 8 15 -9 55 -9 182 0 90 7 253 15 363 19 l199 6
-98 94 -98 93 -201 -2 c-111 -1 -222 -3 -247 -5z m103 -52 c-4 -14 -3 -14 9
-1 15 18 134 28 123 10 -3 -5 -1 -10 4 -10 6 0 11 5 11 10 0 11 46 13 143 3
40 -3 67 -11 67 -17 0 -8 -52 -12 -177 -12 -172 -1 -292 -7 -323 -17 -8 -3
-30 -8 -47 -11 -28 -5 -33 -2 -33 13 0 13 11 23 33 30 44 14 127 12 127 -2 0
-7 4 -5 9 3 13 22 61 23 54 1z"/>
<path d="M6733 6328 c-41 -45 -62 -116 -54 -185 1 -16 176 -18 186 -3 10 16
-53 130 -73 130 -16 1 -16 1 1 11 10 6 17 22 17 39 0 26 -4 30 -28 30 -17 0
-37 -9 -49 -22z"/>
<path d="M8563 6570 c-56 -12 -97 -34 -149 -82 -43 -39 -94 -118 -109 -166
l-7 -24 114 7 c152 8 158 10 158 41 0 35 26 133 50 189 22 51 23 50 -57 35z"/>
<path d="M0 880 l0 -880 10910 0 10910 0 0 185 c0 183 0 185 -22 189 -13 3
-606 41 -1318 86 -712 45 -1572 99 -1910 120 -338 22 -1396 89 -2350 150 -954
61 -2016 128 -2360 150 -344 22 -1370 87 -2280 145 -910 58 -2006 128 -2435
155 -429 27 -1102 70 -1495 95 -393 25 -960 61 -1260 80 -300 19 -864 55
-1255 80 -390 25 -885 56 -1100 70 -2770 176 -4009 255 -4021 255 -12 0 -14
-123 -14 -880z"/>
</g>
</svg>
